<?xml version="1.0" encoding="UTF-8" standalone="no"?>
<!DOCTYPE svg PUBLIC "-//W3C//DTD SVG 1.1//EN"
 "http://www.w3.org/Graphics/SVG/1.1/DTD/svg11.dtd">
<!-- Generated by graphviz version 2.48.0 (0)
 -->
<!-- Pages: 1 -->
<svg width="249pt" height="260pt"
 viewBox="0.00 0.00 249.00 259.91" xmlns="http://www.w3.org/2000/svg" xmlns:xlink="http://www.w3.org/1999/xlink">
<g id="graph0" class="graph" transform="scale(1 1) rotate(0) translate(4 255.91)">
<polygon fill="white" stroke="transparent" points="-4,4 -4,-255.91 245,-255.91 245,4 -4,4"/>
<g id="clust1" class="cluster">
<title>cluster2</title>
<path fill="none" stroke="black" d="M137,-129.95C137,-129.95 213,-129.95 213,-129.95 219,-129.95 225,-135.95 225,-141.95 225,-141.95 225,-231.91 225,-231.91 225,-237.91 219,-243.91 213,-243.91 213,-243.91 137,-243.91 137,-243.91 131,-243.91 125,-237.91 125,-231.91 125,-231.91 125,-141.95 125,-141.95 125,-135.95 131,-129.95 137,-129.95"/>
<text text-anchor="middle" x="213.5" y="-137.75" font-family="Times,serif" font-size="14.00">2</text>
</g>
<g id="clust2" class="cluster">
<title>cluster55</title>
<path fill="none" stroke="black" d="M20,-8C20,-8 221,-8 221,-8 227,-8 233,-14 233,-20 233,-20 233,-109.95 233,-109.95 233,-115.95 227,-121.95 221,-121.95 221,-121.95 20,-121.95 20,-121.95 14,-121.95 8,-115.95 8,-109.95 8,-109.95 8,-20 8,-20 8,-14 14,-8 20,-8"/>
<text text-anchor="middle" x="218" y="-15.8" font-family="Times,serif" font-size="14.00">55</text>
</g>
<!-- α -->
<g id="node1" class="node">
<title>α</title>
<ellipse fill="none" stroke="black" cx="68" cy="-198.43" rx="41.94" ry="37.45"/>
<text text-anchor="middle" x="68" y="-209.73" font-family="Times,serif" font-size="14.00">α</text>
<text text-anchor="middle" x="68" y="-194.73" font-family="Times,serif" font-size="14.00">~</text>
<text text-anchor="middle" x="68" y="-179.73" font-family="Times,serif" font-size="14.00">Normal</text>
</g>
<!-- bd -->
<g id="node3" class="node">
<title>bd</title>
<polygon fill="none" stroke="black" points="224.5,-102.98 131.5,-102.98 131.5,-49.98 224.5,-49.98 224.5,-102.98"/>
<text text-anchor="middle" x="178" y="-87.78" font-family="Times,serif" font-size="14.00">bd</text>
<text text-anchor="middle" x="178" y="-72.78" font-family="Times,serif" font-size="14.00">~</text>
<text text-anchor="middle" x="178" y="-57.78" font-family="Times,serif" font-size="14.00">Deterministic</text>
</g>
<!-- α&#45;&gt;bd -->
<g id="edge2" class="edge">
<title>α&#45;&gt;bd</title>
<path fill="none" stroke="black" d="M90.48,-166.68C99.56,-154.85 110.38,-141.44 121,-129.95 127.24,-123.21 134.2,-116.33 141.06,-109.86"/>
<polygon fill="black" stroke="black" points="143.47,-112.4 148.43,-103.04 138.72,-107.27 143.47,-112.4"/>
</g>
<!-- yl -->
<g id="node4" class="node">
<title>yl</title>
<ellipse fill="lightgrey" stroke="black" cx="65" cy="-76.48" rx="48.58" ry="37.45"/>
<text text-anchor="middle" x="65" y="-87.78" font-family="Times,serif" font-size="14.00">yl</text>
<text text-anchor="middle" x="65" y="-72.78" font-family="Times,serif" font-size="14.00">~</text>
<text text-anchor="middle" x="65" y="-57.78" font-family="Times,serif" font-size="14.00">Bernoulli</text>
</g>
<!-- α&#45;&gt;yl -->
<g id="edge4" class="edge">
<title>α&#45;&gt;yl</title>
<path fill="none" stroke="black" d="M67.08,-160.79C66.8,-149.38 66.48,-136.65 66.18,-124.63"/>
<polygon fill="black" stroke="black" points="69.67,-124.22 65.92,-114.31 62.67,-124.39 69.67,-124.22"/>
</g>
<!-- β -->
<g id="node2" class="node">
<title>β</title>
<ellipse fill="none" stroke="black" cx="175" cy="-198.43" rx="41.94" ry="37.45"/>
<text text-anchor="middle" x="175" y="-209.73" font-family="Times,serif" font-size="14.00">β</text>
<text text-anchor="middle" x="175" y="-194.73" font-family="Times,serif" font-size="14.00">~</text>
<text text-anchor="middle" x="175" y="-179.73" font-family="Times,serif" font-size="14.00">Normal</text>
</g>
<!-- β&#45;&gt;bd -->
<g id="edge1" class="edge">
<title>β&#45;&gt;bd</title>
<path fill="none" stroke="black" d="M175.92,-160.79C176.29,-145.82 176.72,-128.55 177.1,-113.63"/>
<polygon fill="black" stroke="black" points="180.6,-113.34 177.36,-103.25 173.61,-113.16 180.6,-113.34"/>
</g>
<!-- β&#45;&gt;yl -->
<g id="edge3" class="edge">
<title>β&#45;&gt;yl</title>
<path fill="none" stroke="black" d="M151.14,-167.28C141.44,-155.41 129.95,-141.8 119,-129.95 113.94,-124.48 108.45,-118.83 102.97,-113.37"/>
<polygon fill="black" stroke="black" points="105.14,-110.59 95.56,-106.07 100.23,-115.58 105.14,-110.59"/>
</g>
</g>
</svg>
