<?xml version="1.0" encoding="UTF-8" standalone="no"?>
<!DOCTYPE svg PUBLIC "-//W3C//DTD SVG 1.1//EN"
 "http://www.w3.org/Graphics/SVG/1.1/DTD/svg11.dtd">
<!-- Generated by graphviz version 2.48.0 (0)
 -->
<!-- Pages: 1 -->
<svg width="232pt" height="322pt"
 viewBox="0.00 0.00 231.50 321.91" xmlns="http://www.w3.org/2000/svg" xmlns:xlink="http://www.w3.org/1999/xlink">
<g id="graph0" class="graph" transform="scale(1 1) rotate(0) translate(4 317.91)">
<polygon fill="white" stroke="transparent" points="-4,4 -4,-317.91 227.5,-317.91 227.5,4 -4,4"/>
<g id="clust1" class="cluster">
<title>cluster100</title>
<path fill="none" stroke="black" d="M113.5,-8C113.5,-8 203.5,-8 203.5,-8 209.5,-8 215.5,-14 215.5,-20 215.5,-20 215.5,-198.95 215.5,-198.95 215.5,-204.95 209.5,-210.95 203.5,-210.95 203.5,-210.95 113.5,-210.95 113.5,-210.95 107.5,-210.95 101.5,-204.95 101.5,-198.95 101.5,-198.95 101.5,-20 101.5,-20 101.5,-14 107.5,-8 113.5,-8"/>
<text text-anchor="middle" x="197" y="-15.8" font-family="Times,serif" font-size="14.00">100</text>
</g>
<!-- β -->
<g id="node1" class="node">
<title>β</title>
<ellipse fill="none" stroke="black" cx="51.5" cy="-276.43" rx="41.94" ry="37.45"/>
<text text-anchor="middle" x="51.5" y="-287.73" font-family="Times,serif" font-size="14.00">β</text>
<text text-anchor="middle" x="51.5" y="-272.73" font-family="Times,serif" font-size="14.00">~</text>
<text text-anchor="middle" x="51.5" y="-257.73" font-family="Times,serif" font-size="14.00">Normal</text>
</g>
<!-- bd -->
<g id="node2" class="node">
<title>bd</title>
<polygon fill="none" stroke="black" points="93,-202.95 0,-202.95 0,-149.95 93,-149.95 93,-202.95"/>
<text text-anchor="middle" x="46.5" y="-187.75" font-family="Times,serif" font-size="14.00">bd</text>
<text text-anchor="middle" x="46.5" y="-172.75" font-family="Times,serif" font-size="14.00">~</text>
<text text-anchor="middle" x="46.5" y="-157.75" font-family="Times,serif" font-size="14.00">Deterministic</text>
</g>
<!-- β&#45;&gt;bd -->
<g id="edge3" class="edge">
<title>β&#45;&gt;bd</title>
<path fill="none" stroke="black" d="M49.64,-238.95C49.21,-230.53 48.75,-221.59 48.32,-213.2"/>
<polygon fill="black" stroke="black" points="51.81,-212.77 47.8,-202.96 44.82,-213.13 51.81,-212.77"/>
</g>
<!-- θ -->
<g id="node5" class="node">
<title>θ</title>
<polygon fill="none" stroke="black" points="204,-202.95 111,-202.95 111,-149.95 204,-149.95 204,-202.95"/>
<text text-anchor="middle" x="157.5" y="-187.75" font-family="Times,serif" font-size="14.00">θ</text>
<text text-anchor="middle" x="157.5" y="-172.75" font-family="Times,serif" font-size="14.00">~</text>
<text text-anchor="middle" x="157.5" y="-157.75" font-family="Times,serif" font-size="14.00">Deterministic</text>
</g>
<!-- β&#45;&gt;θ -->
<g id="edge1" class="edge">
<title>β&#45;&gt;θ</title>
<path fill="none" stroke="black" d="M80.19,-248.92C93.22,-236.87 108.76,-222.5 122.48,-209.82"/>
<polygon fill="black" stroke="black" points="124.92,-212.33 129.89,-202.97 120.17,-207.19 124.92,-212.33"/>
</g>
<!-- α -->
<g id="node3" class="node">
<title>α</title>
<ellipse fill="none" stroke="black" cx="154.5" cy="-276.43" rx="41.94" ry="37.45"/>
<text text-anchor="middle" x="154.5" y="-287.73" font-family="Times,serif" font-size="14.00">α</text>
<text text-anchor="middle" x="154.5" y="-272.73" font-family="Times,serif" font-size="14.00">~</text>
<text text-anchor="middle" x="154.5" y="-257.73" font-family="Times,serif" font-size="14.00">Normal</text>
</g>
<!-- α&#45;&gt;bd -->
<g id="edge4" class="edge">
<title>α&#45;&gt;bd</title>
<path fill="none" stroke="black" d="M125.56,-249.17C112.27,-237.12 96.39,-222.71 82.35,-209.98"/>
<polygon fill="black" stroke="black" points="84.53,-207.23 74.77,-203.1 79.83,-212.41 84.53,-207.23"/>
</g>
<!-- α&#45;&gt;θ -->
<g id="edge2" class="edge">
<title>α&#45;&gt;θ</title>
<path fill="none" stroke="black" d="M155.62,-238.95C155.87,-230.53 156.15,-221.59 156.41,-213.2"/>
<polygon fill="black" stroke="black" points="159.91,-213.07 156.72,-202.96 152.91,-212.85 159.91,-213.07"/>
</g>
<!-- yl -->
<g id="node4" class="node">
<title>yl</title>
<ellipse fill="lightgrey" stroke="black" cx="158.5" cy="-76.48" rx="48.58" ry="37.45"/>
<text text-anchor="middle" x="158.5" y="-87.78" font-family="Times,serif" font-size="14.00">yl</text>
<text text-anchor="middle" x="158.5" y="-72.78" font-family="Times,serif" font-size="14.00">~</text>
<text text-anchor="middle" x="158.5" y="-57.78" font-family="Times,serif" font-size="14.00">Bernoulli</text>
</g>
<!-- θ&#45;&gt;yl -->
<g id="edge5" class="edge">
<title>θ&#45;&gt;yl</title>
<path fill="none" stroke="black" d="M157.76,-149.71C157.84,-141.89 157.93,-133.03 158.02,-124.27"/>
<polygon fill="black" stroke="black" points="161.52,-124.13 158.13,-114.1 154.52,-124.06 161.52,-124.13"/>
</g>
</g>
</svg>
