<?xml version="1.0" encoding="UTF-8" standalone="no"?>
<!DOCTYPE svg PUBLIC "-//W3C//DTD SVG 1.1//EN"
 "http://www.w3.org/Graphics/SVG/1.1/DTD/svg11.dtd">
<!-- Generated by graphviz version 2.48.0 (0)
 -->
<!-- Pages: 1 -->
<svg width="232pt" height="360pt"
 viewBox="0.00 0.00 232.00 359.91" xmlns="http://www.w3.org/2000/svg" xmlns:xlink="http://www.w3.org/1999/xlink">
<g id="graph0" class="graph" transform="scale(1 1) rotate(0) translate(4 355.91)">
<polygon fill="white" stroke="transparent" points="-4,4 -4,-355.91 228,-355.91 228,4 -4,4"/>
<g id="clust1" class="cluster">
<title>cluster3</title>
<path fill="none" stroke="black" d="M20,-229.95C20,-229.95 96,-229.95 96,-229.95 102,-229.95 108,-235.95 108,-241.95 108,-241.95 108,-331.91 108,-331.91 108,-337.91 102,-343.91 96,-343.91 96,-343.91 20,-343.91 20,-343.91 14,-343.91 8,-337.91 8,-331.91 8,-331.91 8,-241.95 8,-241.95 8,-235.95 14,-229.95 20,-229.95"/>
<text text-anchor="middle" x="96.5" y="-237.75" font-family="Times,serif" font-size="14.00">3</text>
</g>
<g id="clust2" class="cluster">
<title>cluster4 x 3</title>
<path fill="none" stroke="black" d="M128,-229.95C128,-229.95 204,-229.95 204,-229.95 210,-229.95 216,-235.95 216,-241.95 216,-241.95 216,-331.91 216,-331.91 216,-337.91 210,-343.91 204,-343.91 204,-343.91 128,-343.91 128,-343.91 122,-343.91 116,-337.91 116,-331.91 116,-331.91 116,-241.95 116,-241.95 116,-235.95 122,-229.95 128,-229.95"/>
<text text-anchor="middle" x="194" y="-237.75" font-family="Times,serif" font-size="14.00">4 x 3</text>
</g>
<g id="clust3" class="cluster">
<title>cluster150 x 3</title>
<path fill="none" stroke="black" d="M65,-129.95C65,-129.95 151,-129.95 151,-129.95 157,-129.95 163,-135.95 163,-141.95 163,-141.95 163,-209.95 163,-209.95 163,-215.95 157,-221.95 151,-221.95 151,-221.95 65,-221.95 65,-221.95 59,-221.95 53,-215.95 53,-209.95 53,-209.95 53,-141.95 53,-141.95 53,-135.95 59,-129.95 65,-129.95"/>
<text text-anchor="middle" x="134" y="-137.75" font-family="Times,serif" font-size="14.00">150 x 3</text>
</g>
<g id="clust4" class="cluster">
<title>cluster150</title>
<path fill="none" stroke="black" d="M55,-8C55,-8 161,-8 161,-8 167,-8 173,-14 173,-20 173,-20 173,-109.95 173,-109.95 173,-115.95 167,-121.95 161,-121.95 161,-121.95 55,-121.95 55,-121.95 49,-121.95 43,-115.95 43,-109.95 43,-109.95 43,-20 43,-20 43,-14 49,-8 55,-8"/>
<text text-anchor="middle" x="154.5" y="-15.8" font-family="Times,serif" font-size="14.00">150</text>
</g>
<!-- α -->
<g id="node1" class="node">
<title>α</title>
<ellipse fill="none" stroke="black" cx="58" cy="-298.43" rx="41.94" ry="37.45"/>
<text text-anchor="middle" x="58" y="-309.73" font-family="Times,serif" font-size="14.00">α</text>
<text text-anchor="middle" x="58" y="-294.73" font-family="Times,serif" font-size="14.00">~</text>
<text text-anchor="middle" x="58" y="-279.73" font-family="Times,serif" font-size="14.00">Normal</text>
</g>
<!-- μ -->
<g id="node3" class="node">
<title>μ</title>
<polygon fill="none" stroke="black" points="154.5,-213.95 61.5,-213.95 61.5,-160.95 154.5,-160.95 154.5,-213.95"/>
<text text-anchor="middle" x="108" y="-198.75" font-family="Times,serif" font-size="14.00">μ</text>
<text text-anchor="middle" x="108" y="-183.75" font-family="Times,serif" font-size="14.00">~</text>
<text text-anchor="middle" x="108" y="-168.75" font-family="Times,serif" font-size="14.00">Deterministic</text>
</g>
<!-- α&#45;&gt;μ -->
<g id="edge2" class="edge">
<title>α&#45;&gt;μ</title>
<path fill="none" stroke="black" d="M73.55,-263.55C79.39,-250.8 86.05,-236.29 91.95,-223.44"/>
<polygon fill="black" stroke="black" points="95.29,-224.55 96.28,-214 88.93,-221.63 95.29,-224.55"/>
</g>
<!-- β -->
<g id="node2" class="node">
<title>β</title>
<ellipse fill="none" stroke="black" cx="166" cy="-298.43" rx="41.94" ry="37.45"/>
<text text-anchor="middle" x="166" y="-309.73" font-family="Times,serif" font-size="14.00">β</text>
<text text-anchor="middle" x="166" y="-294.73" font-family="Times,serif" font-size="14.00">~</text>
<text text-anchor="middle" x="166" y="-279.73" font-family="Times,serif" font-size="14.00">Normal</text>
</g>
<!-- β&#45;&gt;μ -->
<g id="edge1" class="edge">
<title>β&#45;&gt;μ</title>
<path fill="none" stroke="black" d="M148.28,-264.14C141.42,-251.25 133.56,-236.48 126.61,-223.43"/>
<polygon fill="black" stroke="black" points="129.53,-221.46 121.75,-214.28 123.35,-224.75 129.53,-221.46"/>
</g>
<!-- yl -->
<g id="node4" class="node">
<title>yl</title>
<ellipse fill="lightgrey" stroke="black" cx="108" cy="-76.48" rx="57.05" ry="37.45"/>
<text text-anchor="middle" x="108" y="-87.78" font-family="Times,serif" font-size="14.00">yl</text>
<text text-anchor="middle" x="108" y="-72.78" font-family="Times,serif" font-size="14.00">~</text>
<text text-anchor="middle" x="108" y="-57.78" font-family="Times,serif" font-size="14.00">Categorical</text>
</g>
<!-- μ&#45;&gt;yl -->
<g id="edge3" class="edge">
<title>μ&#45;&gt;yl</title>
<path fill="none" stroke="black" d="M108,-160.9C108,-149.99 108,-136.9 108,-124.36"/>
<polygon fill="black" stroke="black" points="111.5,-124.01 108,-114.01 104.5,-124.01 111.5,-124.01"/>
</g>
</g>
</svg>
