<?xml version="1.0" encoding="UTF-8" standalone="no"?>
<!DOCTYPE svg PUBLIC "-//W3C//DTD SVG 1.1//EN"
 "http://www.w3.org/Graphics/SVG/1.1/DTD/svg11.dtd">
<!-- Generated by graphviz version 2.48.0 (0)
 -->
<!-- Pages: 1 -->
<svg width="291pt" height="344pt"
 viewBox="0.00 0.00 291.20 343.86" xmlns="http://www.w3.org/2000/svg" xmlns:xlink="http://www.w3.org/1999/xlink">
<g id="graph0" class="graph" transform="scale(1 1) rotate(0) translate(4 339.86)">
<polygon fill="white" stroke="transparent" points="-4,4 -4,-339.86 287.2,-339.86 287.2,4 -4,4"/>
<g id="clust1" class="cluster">
<title>cluster106</title>
<path fill="none" stroke="black" d="M113.5,-8C113.5,-8 203.5,-8 203.5,-8 209.5,-8 215.5,-14 215.5,-20 215.5,-20 215.5,-209.93 215.5,-209.93 215.5,-215.93 209.5,-221.93 203.5,-221.93 203.5,-221.93 113.5,-221.93 113.5,-221.93 107.5,-221.93 101.5,-215.93 101.5,-209.93 101.5,-209.93 101.5,-20 101.5,-20 101.5,-14 107.5,-8 113.5,-8"/>
<text text-anchor="middle" x="197" y="-15.8" font-family="Times,serif" font-size="14.00">106</text>
</g>
<!-- β -->
<g id="node1" class="node">
<title>β</title>
<ellipse fill="none" stroke="black" cx="51.5" cy="-298.38" rx="41.94" ry="37.45"/>
<text text-anchor="middle" x="51.5" y="-309.68" font-family="Times,serif" font-size="14.00">β</text>
<text text-anchor="middle" x="51.5" y="-294.68" font-family="Times,serif" font-size="14.00">~</text>
<text text-anchor="middle" x="51.5" y="-279.68" font-family="Times,serif" font-size="14.00">Normal</text>
</g>
<!-- bd -->
<g id="node2" class="node">
<title>bd</title>
<polygon fill="none" stroke="black" points="93,-213.93 0,-213.93 0,-160.93 93,-160.93 93,-213.93"/>
<text text-anchor="middle" x="46.5" y="-198.73" font-family="Times,serif" font-size="14.00">bd</text>
<text text-anchor="middle" x="46.5" y="-183.73" font-family="Times,serif" font-size="14.00">~</text>
<text text-anchor="middle" x="46.5" y="-168.73" font-family="Times,serif" font-size="14.00">Deterministic</text>
</g>
<!-- β&#45;&gt;bd -->
<g id="edge3" class="edge">
<title>β&#45;&gt;bd</title>
<path fill="none" stroke="black" d="M49.82,-260.8C49.28,-249.06 48.69,-236.08 48.15,-224.38"/>
<polygon fill="black" stroke="black" points="51.63,-223.91 47.68,-214.08 44.64,-224.23 51.63,-223.91"/>
</g>
<!-- θ -->
<g id="node6" class="node">
<title>θ</title>
<polygon fill="none" stroke="black" points="204,-213.93 111,-213.93 111,-160.93 204,-160.93 204,-213.93"/>
<text text-anchor="middle" x="157.5" y="-198.73" font-family="Times,serif" font-size="14.00">θ</text>
<text text-anchor="middle" x="157.5" y="-183.73" font-family="Times,serif" font-size="14.00">~</text>
<text text-anchor="middle" x="157.5" y="-168.73" font-family="Times,serif" font-size="14.00">Deterministic</text>
</g>
<!-- β&#45;&gt;θ -->
<g id="edge1" class="edge">
<title>β&#45;&gt;θ</title>
<path fill="none" stroke="black" d="M78.52,-269.61C92.75,-254.98 110.31,-236.94 125.25,-221.58"/>
<polygon fill="black" stroke="black" points="127.88,-223.89 132.35,-214.28 122.87,-219.01 127.88,-223.89"/>
</g>
<!-- π -->
<g id="node3" class="node">
<title>π</title>
<ellipse fill="none" stroke="black" cx="253.5" cy="-187.43" rx="29.9" ry="37.45"/>
<text text-anchor="middle" x="253.5" y="-198.73" font-family="Times,serif" font-size="14.00">π</text>
<text text-anchor="middle" x="253.5" y="-183.73" font-family="Times,serif" font-size="14.00">~</text>
<text text-anchor="middle" x="253.5" y="-168.73" font-family="Times,serif" font-size="14.00">Beta</text>
</g>
<!-- yl -->
<g id="node5" class="node">
<title>yl</title>
<ellipse fill="lightgrey" stroke="black" cx="158.5" cy="-76.48" rx="48.58" ry="37.45"/>
<text text-anchor="middle" x="158.5" y="-87.78" font-family="Times,serif" font-size="14.00">yl</text>
<text text-anchor="middle" x="158.5" y="-72.78" font-family="Times,serif" font-size="14.00">~</text>
<text text-anchor="middle" x="158.5" y="-57.78" font-family="Times,serif" font-size="14.00">Bernoulli</text>
</g>
<!-- π&#45;&gt;yl -->
<g id="edge6" class="edge">
<title>π&#45;&gt;yl</title>
<path fill="none" stroke="black" d="M231.71,-161.43C219.95,-147.95 205.19,-131.02 192.01,-115.9"/>
<polygon fill="black" stroke="black" points="194.49,-113.43 185.28,-108.19 189.21,-118.03 194.49,-113.43"/>
</g>
<!-- α -->
<g id="node4" class="node">
<title>α</title>
<ellipse fill="none" stroke="black" cx="154.5" cy="-298.38" rx="41.94" ry="37.45"/>
<text text-anchor="middle" x="154.5" y="-309.68" font-family="Times,serif" font-size="14.00">α</text>
<text text-anchor="middle" x="154.5" y="-294.68" font-family="Times,serif" font-size="14.00">~</text>
<text text-anchor="middle" x="154.5" y="-279.68" font-family="Times,serif" font-size="14.00">Normal</text>
</g>
<!-- α&#45;&gt;bd -->
<g id="edge4" class="edge">
<title>α&#45;&gt;bd</title>
<path fill="none" stroke="black" d="M127.25,-269.89C112.64,-255.15 94.54,-236.89 79.18,-221.4"/>
<polygon fill="black" stroke="black" points="81.42,-218.68 71.89,-214.04 76.44,-223.61 81.42,-218.68"/>
</g>
<!-- α&#45;&gt;θ -->
<g id="edge2" class="edge">
<title>α&#45;&gt;θ</title>
<path fill="none" stroke="black" d="M155.51,-260.8C155.83,-249.06 156.19,-236.08 156.51,-224.38"/>
<polygon fill="black" stroke="black" points="160.02,-224.17 156.79,-214.08 153.02,-223.98 160.02,-224.17"/>
</g>
<!-- θ&#45;&gt;yl -->
<g id="edge5" class="edge">
<title>θ&#45;&gt;yl</title>
<path fill="none" stroke="black" d="M157.73,-160.89C157.83,-149.98 157.95,-136.89 158.07,-124.35"/>
<polygon fill="black" stroke="black" points="161.57,-124.03 158.16,-114 154.57,-123.97 161.57,-124.03"/>
</g>
</g>
</svg>
