<?xml version="1.0" encoding="UTF-8" standalone="no"?>
<!DOCTYPE svg PUBLIC "-//W3C//DTD SVG 1.1//EN"
 "http://www.w3.org/Graphics/SVG/1.1/DTD/svg11.dtd">
<!-- Generated by graphviz version 2.48.0 (0)
 -->
<!-- Pages: 1 -->
<svg width="245pt" height="349pt"
 viewBox="0.00 0.00 245.00 348.91" xmlns="http://www.w3.org/2000/svg" xmlns:xlink="http://www.w3.org/1999/xlink">
<g id="graph0" class="graph" transform="scale(1 1) rotate(0) translate(4 344.91)">
<polygon fill="white" stroke="transparent" points="-4,4 -4,-344.91 241,-344.91 241,4 -4,4"/>
<g id="clust1" class="cluster">
<title>cluster2</title>
<path fill="none" stroke="black" d="M133,-218.95C133,-218.95 209,-218.95 209,-218.95 215,-218.95 221,-224.95 221,-230.95 221,-230.95 221,-320.91 221,-320.91 221,-326.91 215,-332.91 209,-332.91 209,-332.91 133,-332.91 133,-332.91 127,-332.91 121,-326.91 121,-320.91 121,-320.91 121,-230.95 121,-230.95 121,-224.95 127,-218.95 133,-218.95"/>
<text text-anchor="middle" x="209.5" y="-226.75" font-family="Times,serif" font-size="14.00">2</text>
</g>
<g id="clust2" class="cluster">
<title>cluster100</title>
<path fill="none" stroke="black" d="M20,-8C20,-8 217,-8 217,-8 223,-8 229,-14 229,-20 229,-20 229,-198.95 229,-198.95 229,-204.95 223,-210.95 217,-210.95 217,-210.95 20,-210.95 20,-210.95 14,-210.95 8,-204.95 8,-198.95 8,-198.95 8,-20 8,-20 8,-14 14,-8 20,-8"/>
<text text-anchor="middle" x="210.5" y="-15.8" font-family="Times,serif" font-size="14.00">100</text>
</g>
<!-- α -->
<g id="node1" class="node">
<title>α</title>
<ellipse fill="none" stroke="black" cx="65" cy="-287.43" rx="41.94" ry="37.45"/>
<text text-anchor="middle" x="65" y="-298.73" font-family="Times,serif" font-size="14.00">α</text>
<text text-anchor="middle" x="65" y="-283.73" font-family="Times,serif" font-size="14.00">~</text>
<text text-anchor="middle" x="65" y="-268.73" font-family="Times,serif" font-size="14.00">Normal</text>
</g>
<!-- bd -->
<g id="node3" class="node">
<title>bd</title>
<polygon fill="none" stroke="black" points="220.5,-202.95 127.5,-202.95 127.5,-149.95 220.5,-149.95 220.5,-202.95"/>
<text text-anchor="middle" x="174" y="-187.75" font-family="Times,serif" font-size="14.00">bd</text>
<text text-anchor="middle" x="174" y="-172.75" font-family="Times,serif" font-size="14.00">~</text>
<text text-anchor="middle" x="174" y="-157.75" font-family="Times,serif" font-size="14.00">Deterministic</text>
</g>
<!-- α&#45;&gt;bd -->
<g id="edge3" class="edge">
<title>α&#45;&gt;bd</title>
<path fill="none" stroke="black" d="M86.32,-255C95.12,-243.08 105.87,-229.78 117,-218.95 120.39,-215.66 124.05,-212.41 127.82,-209.28"/>
<polygon fill="black" stroke="black" points="130.04,-211.99 135.68,-203.02 125.68,-206.51 130.04,-211.99"/>
</g>
<!-- θ -->
<g id="node5" class="node">
<title>θ</title>
<polygon fill="none" stroke="black" points="109.5,-202.95 16.5,-202.95 16.5,-149.95 109.5,-149.95 109.5,-202.95"/>
<text text-anchor="middle" x="63" y="-187.75" font-family="Times,serif" font-size="14.00">θ</text>
<text text-anchor="middle" x="63" y="-172.75" font-family="Times,serif" font-size="14.00">~</text>
<text text-anchor="middle" x="63" y="-157.75" font-family="Times,serif" font-size="14.00">Deterministic</text>
</g>
<!-- α&#45;&gt;θ -->
<g id="edge1" class="edge">
<title>α&#45;&gt;θ</title>
<path fill="none" stroke="black" d="M64.33,-249.84C64.11,-238.1 63.87,-225.11 63.66,-213.42"/>
<polygon fill="black" stroke="black" points="67.15,-213.05 63.47,-203.11 60.16,-213.17 67.15,-213.05"/>
</g>
<!-- β -->
<g id="node2" class="node">
<title>β</title>
<ellipse fill="none" stroke="black" cx="171" cy="-287.43" rx="41.94" ry="37.45"/>
<text text-anchor="middle" x="171" y="-298.73" font-family="Times,serif" font-size="14.00">β</text>
<text text-anchor="middle" x="171" y="-283.73" font-family="Times,serif" font-size="14.00">~</text>
<text text-anchor="middle" x="171" y="-268.73" font-family="Times,serif" font-size="14.00">Normal</text>
</g>
<!-- β&#45;&gt;bd -->
<g id="edge4" class="edge">
<title>β&#45;&gt;bd</title>
<path fill="none" stroke="black" d="M172.01,-249.84C172.33,-238.1 172.69,-225.11 173.01,-213.42"/>
<polygon fill="black" stroke="black" points="176.52,-213.2 173.29,-203.11 169.52,-213.01 176.52,-213.2"/>
</g>
<!-- β&#45;&gt;θ -->
<g id="edge2" class="edge">
<title>β&#45;&gt;θ</title>
<path fill="none" stroke="black" d="M148.26,-255.63C138.83,-243.67 127.44,-230.17 116,-218.95 112.82,-215.83 109.4,-212.72 105.9,-209.68"/>
<polygon fill="black" stroke="black" points="108.06,-206.92 98.15,-203.18 103.56,-212.28 108.06,-206.92"/>
</g>
<!-- yl -->
<g id="node4" class="node">
<title>yl</title>
<ellipse fill="lightgrey" stroke="black" cx="65" cy="-76.48" rx="48.58" ry="37.45"/>
<text text-anchor="middle" x="65" y="-87.78" font-family="Times,serif" font-size="14.00">yl</text>
<text text-anchor="middle" x="65" y="-72.78" font-family="Times,serif" font-size="14.00">~</text>
<text text-anchor="middle" x="65" y="-57.78" font-family="Times,serif" font-size="14.00">Bernoulli</text>
</g>
<!-- θ&#45;&gt;yl -->
<g id="edge5" class="edge">
<title>θ&#45;&gt;yl</title>
<path fill="none" stroke="black" d="M63.53,-149.71C63.69,-141.89 63.87,-133.03 64.04,-124.27"/>
<polygon fill="black" stroke="black" points="67.55,-124.17 64.25,-114.1 60.55,-124.03 67.55,-124.17"/>
</g>
</g>
</svg>
