<?xml version="1.0" encoding="UTF-8" standalone="no"?>
<!DOCTYPE svg PUBLIC "-//W3C//DTD SVG 1.1//EN"
 "http://www.w3.org/Graphics/SVG/1.1/DTD/svg11.dtd">
<!-- Generated by graphviz version 2.48.0 (0)
 -->
<!-- Pages: 1 -->
<svg width="286pt" height="260pt"
 viewBox="0.00 0.00 285.70 259.91" xmlns="http://www.w3.org/2000/svg" xmlns:xlink="http://www.w3.org/1999/xlink">
<g id="graph0" class="graph" transform="scale(1 1) rotate(0) translate(4 255.91)">
<polygon fill="white" stroke="transparent" points="-4,4 -4,-255.91 281.7,-255.91 281.7,4 -4,4"/>
<g id="clust2" class="cluster">
<title>cluster250</title>
<path fill="none" stroke="black" d="M31.7,-8C31.7,-8 205.7,-8 205.7,-8 211.7,-8 217.7,-14 217.7,-20 217.7,-20 217.7,-109.95 217.7,-109.95 217.7,-115.95 211.7,-121.95 205.7,-121.95 205.7,-121.95 31.7,-121.95 31.7,-121.95 25.7,-121.95 19.7,-115.95 19.7,-109.95 19.7,-109.95 19.7,-20 19.7,-20 19.7,-14 25.7,-8 31.7,-8"/>
<text text-anchor="middle" x="199.2" y="-15.8" font-family="Times,serif" font-size="14.00">250</text>
</g>
<g id="clust1" class="cluster">
<title>cluster2</title>
<path fill="none" stroke="black" d="M181.7,-129.95C181.7,-129.95 257.7,-129.95 257.7,-129.95 263.7,-129.95 269.7,-135.95 269.7,-141.95 269.7,-141.95 269.7,-231.91 269.7,-231.91 269.7,-237.91 263.7,-243.91 257.7,-243.91 257.7,-243.91 181.7,-243.91 181.7,-243.91 175.7,-243.91 169.7,-237.91 169.7,-231.91 169.7,-231.91 169.7,-141.95 169.7,-141.95 169.7,-135.95 175.7,-129.95 181.7,-129.95"/>
<text text-anchor="middle" x="258.2" y="-137.75" font-family="Times,serif" font-size="14.00">2</text>
</g>
<!-- ψ -->
<g id="node1" class="node">
<title>ψ</title>
<ellipse fill="none" stroke="black" cx="29.7" cy="-198.43" rx="29.9" ry="37.45"/>
<text text-anchor="middle" x="29.7" y="-209.73" font-family="Times,serif" font-size="14.00">ψ</text>
<text text-anchor="middle" x="29.7" y="-194.73" font-family="Times,serif" font-size="14.00">~</text>
<text text-anchor="middle" x="29.7" y="-179.73" font-family="Times,serif" font-size="14.00">Beta</text>
</g>
<!-- yl -->
<g id="node4" class="node">
<title>yl</title>
<ellipse fill="lightgrey" stroke="black" cx="118.7" cy="-76.48" rx="91.43" ry="37.45"/>
<text text-anchor="middle" x="118.7" y="-87.78" font-family="Times,serif" font-size="14.00">yl</text>
<text text-anchor="middle" x="118.7" y="-72.78" font-family="Times,serif" font-size="14.00">~</text>
<text text-anchor="middle" x="118.7" y="-57.78" font-family="Times,serif" font-size="14.00">ZeroInflatedPoisson</text>
</g>
<!-- ψ&#45;&gt;yl -->
<g id="edge2" class="edge">
<title>ψ&#45;&gt;yl</title>
<path fill="none" stroke="black" d="M45.12,-166.16C51.48,-154.39 59.33,-141.15 67.7,-129.95 70.43,-126.31 73.39,-122.65 76.47,-119.06"/>
<polygon fill="black" stroke="black" points="79.31,-121.14 83.35,-111.34 74.08,-116.48 79.31,-121.14"/>
</g>
<!-- α -->
<g id="node2" class="node">
<title>α</title>
<ellipse fill="none" stroke="black" cx="118.7" cy="-198.43" rx="41.94" ry="37.45"/>
<text text-anchor="middle" x="118.7" y="-209.73" font-family="Times,serif" font-size="14.00">α</text>
<text text-anchor="middle" x="118.7" y="-194.73" font-family="Times,serif" font-size="14.00">~</text>
<text text-anchor="middle" x="118.7" y="-179.73" font-family="Times,serif" font-size="14.00">Normal</text>
</g>
<!-- α&#45;&gt;yl -->
<g id="edge3" class="edge">
<title>α&#45;&gt;yl</title>
<path fill="none" stroke="black" d="M118.7,-160.79C118.7,-149.38 118.7,-136.65 118.7,-124.63"/>
<polygon fill="black" stroke="black" points="122.2,-124.31 118.7,-114.31 115.2,-124.31 122.2,-124.31"/>
</g>
<!-- β -->
<g id="node3" class="node">
<title>β</title>
<ellipse fill="none" stroke="black" cx="219.7" cy="-198.43" rx="41.94" ry="37.45"/>
<text text-anchor="middle" x="219.7" y="-209.73" font-family="Times,serif" font-size="14.00">β</text>
<text text-anchor="middle" x="219.7" y="-194.73" font-family="Times,serif" font-size="14.00">~</text>
<text text-anchor="middle" x="219.7" y="-179.73" font-family="Times,serif" font-size="14.00">Normal</text>
</g>
<!-- β&#45;&gt;yl -->
<g id="edge1" class="edge">
<title>β&#45;&gt;yl</title>
<path fill="none" stroke="black" d="M197.89,-166.2C189.42,-154.55 179.42,-141.4 169.7,-129.95 166.57,-126.27 163.25,-122.53 159.86,-118.83"/>
<polygon fill="black" stroke="black" points="162.22,-116.23 152.84,-111.3 157.1,-121 162.22,-116.23"/>
</g>
</g>
</svg>
