<?xml version="1.0" encoding="UTF-8" standalone="no"?>
<!DOCTYPE svg PUBLIC "-//W3C//DTD SVG 1.1//EN"
 "http://www.w3.org/Graphics/SVG/1.1/DTD/svg11.dtd">
<!-- Generated by graphviz version 2.48.0 (0)
 -->
<!-- Pages: 1 -->
<svg width="204pt" height="355pt"
 viewBox="0.00 0.00 204.10 354.86" xmlns="http://www.w3.org/2000/svg" xmlns:xlink="http://www.w3.org/1999/xlink">
<g id="graph0" class="graph" transform="scale(1 1) rotate(0) translate(4 350.86)">
<polygon fill="white" stroke="transparent" points="-4,4 -4,-350.86 200.1,-350.86 200.1,4 -4,4"/>
<g id="clust1" class="cluster">
<title>cluster3</title>
<path fill="none" stroke="black" d="M56.7,-129.95C56.7,-129.95 108.7,-129.95 108.7,-129.95 114.7,-129.95 120.7,-135.95 120.7,-141.95 120.7,-141.95 120.7,-231.91 120.7,-231.91 120.7,-237.91 114.7,-243.91 108.7,-243.91 108.7,-243.91 56.7,-243.91 56.7,-243.91 50.7,-243.91 44.7,-237.91 44.7,-231.91 44.7,-231.91 44.7,-141.95 44.7,-141.95 44.7,-135.95 50.7,-129.95 56.7,-129.95"/>
<text text-anchor="middle" x="109.2" y="-137.75" font-family="Times,serif" font-size="14.00">3</text>
</g>
<g id="clust2" class="cluster">
<title>cluster90</title>
<path fill="none" stroke="black" d="M37.7,-8C37.7,-8 127.7,-8 127.7,-8 133.7,-8 139.7,-14 139.7,-20 139.7,-20 139.7,-109.95 139.7,-109.95 139.7,-115.95 133.7,-121.95 127.7,-121.95 127.7,-121.95 37.7,-121.95 37.7,-121.95 31.7,-121.95 25.7,-115.95 25.7,-109.95 25.7,-109.95 25.7,-20 25.7,-20 25.7,-14 31.7,-8 37.7,-8"/>
<text text-anchor="middle" x="124.7" y="-15.8" font-family="Times,serif" font-size="14.00">90</text>
</g>
<!-- μ -->
<g id="node1" class="node">
<title>μ</title>
<ellipse fill="none" stroke="black" cx="29.7" cy="-309.38" rx="29.9" ry="37.45"/>
<text text-anchor="middle" x="29.7" y="-320.68" font-family="Times,serif" font-size="14.00">μ</text>
<text text-anchor="middle" x="29.7" y="-305.68" font-family="Times,serif" font-size="14.00">~</text>
<text text-anchor="middle" x="29.7" y="-290.68" font-family="Times,serif" font-size="14.00">Beta</text>
</g>
<!-- θ -->
<g id="node3" class="node">
<title>θ</title>
<ellipse fill="none" stroke="black" cx="82.7" cy="-198.43" rx="29.9" ry="37.45"/>
<text text-anchor="middle" x="82.7" y="-209.73" font-family="Times,serif" font-size="14.00">θ</text>
<text text-anchor="middle" x="82.7" y="-194.73" font-family="Times,serif" font-size="14.00">~</text>
<text text-anchor="middle" x="82.7" y="-179.73" font-family="Times,serif" font-size="14.00">Beta</text>
</g>
<!-- μ&#45;&gt;θ -->
<g id="edge2" class="edge">
<title>μ&#45;&gt;θ</title>
<path fill="none" stroke="black" d="M44.89,-277.16C50.54,-265.54 57.04,-252.17 63.04,-239.84"/>
<polygon fill="black" stroke="black" points="66.28,-241.18 67.51,-230.66 59.99,-238.12 66.28,-241.18"/>
</g>
<!-- κ -->
<g id="node2" class="node">
<title>κ</title>
<ellipse fill="none" stroke="black" cx="136.7" cy="-309.38" rx="59.29" ry="37.45"/>
<text text-anchor="middle" x="136.7" y="-320.68" font-family="Times,serif" font-size="14.00">κ</text>
<text text-anchor="middle" x="136.7" y="-305.68" font-family="Times,serif" font-size="14.00">~</text>
<text text-anchor="middle" x="136.7" y="-290.68" font-family="Times,serif" font-size="14.00">HalfNormal</text>
</g>
<!-- κ&#45;&gt;θ -->
<g id="edge1" class="edge">
<title>κ&#45;&gt;θ</title>
<path fill="none" stroke="black" d="M119.32,-273.31C114.02,-262.62 108.15,-250.78 102.69,-239.77"/>
<polygon fill="black" stroke="black" points="105.8,-238.16 98.22,-230.76 99.53,-241.27 105.8,-238.16"/>
</g>
<!-- y -->
<g id="node4" class="node">
<title>y</title>
<ellipse fill="lightgrey" stroke="black" cx="82.7" cy="-76.48" rx="48.58" ry="37.45"/>
<text text-anchor="middle" x="82.7" y="-87.78" font-family="Times,serif" font-size="14.00">y</text>
<text text-anchor="middle" x="82.7" y="-72.78" font-family="Times,serif" font-size="14.00">~</text>
<text text-anchor="middle" x="82.7" y="-57.78" font-family="Times,serif" font-size="14.00">Bernoulli</text>
</g>
<!-- θ&#45;&gt;y -->
<g id="edge3" class="edge">
<title>θ&#45;&gt;y</title>
<path fill="none" stroke="black" d="M82.7,-160.79C82.7,-149.38 82.7,-136.65 82.7,-124.63"/>
<polygon fill="black" stroke="black" points="86.2,-124.31 82.7,-114.31 79.2,-124.31 86.2,-124.31"/>
</g>
</g>
</svg>
