<?xml version="1.0" encoding="UTF-8" standalone="no"?>
<!DOCTYPE svg PUBLIC "-//W3C//DTD SVG 1.1//EN"
 "http://www.w3.org/Graphics/SVG/1.1/DTD/svg11.dtd">
<!-- Generated by graphviz version 2.48.0 (0)
 -->
<!-- Pages: 1 -->
<svg width="393pt" height="260pt"
 viewBox="0.00 0.00 392.51 259.91" xmlns="http://www.w3.org/2000/svg" xmlns:xlink="http://www.w3.org/1999/xlink">
<g id="graph0" class="graph" transform="scale(1 1) rotate(0) translate(4 255.91)">
<polygon fill="white" stroke="transparent" points="-4,4 -4,-255.91 388.51,-255.91 388.51,4 -4,4"/>
<g id="clust1" class="cluster">
<title>cluster2</title>
<path fill="none" stroke="black" d="M140.4,-129.95C140.4,-129.95 327.4,-129.95 327.4,-129.95 333.4,-129.95 339.4,-135.95 339.4,-141.95 339.4,-141.95 339.4,-231.91 339.4,-231.91 339.4,-237.91 333.4,-243.91 327.4,-243.91 327.4,-243.91 140.4,-243.91 140.4,-243.91 134.4,-243.91 128.4,-237.91 128.4,-231.91 128.4,-231.91 128.4,-141.95 128.4,-141.95 128.4,-135.95 134.4,-129.95 140.4,-129.95"/>
<text text-anchor="middle" x="327.9" y="-137.75" font-family="Times,serif" font-size="14.00">2</text>
</g>
<g id="clust2" class="cluster">
<title>cluster1,776</title>
<path fill="none" stroke="black" d="M86.4,-8C86.4,-8 226.4,-8 226.4,-8 232.4,-8 238.4,-14 238.4,-20 238.4,-20 238.4,-109.95 238.4,-109.95 238.4,-115.95 232.4,-121.95 226.4,-121.95 226.4,-121.95 86.4,-121.95 86.4,-121.95 80.4,-121.95 74.4,-115.95 74.4,-109.95 74.4,-109.95 74.4,-20 74.4,-20 74.4,-14 80.4,-8 86.4,-8"/>
<text text-anchor="middle" x="214.4" y="-15.8" font-family="Times,serif" font-size="14.00">1,776</text>
</g>
<!-- p -->
<g id="node1" class="node">
<title>p</title>
<ellipse fill="none" stroke="black" cx="183.4" cy="-198.43" rx="46.84" ry="37.45"/>
<text text-anchor="middle" x="183.4" y="-209.73" font-family="Times,serif" font-size="14.00">p</text>
<text text-anchor="middle" x="183.4" y="-194.73" font-family="Times,serif" font-size="14.00">~</text>
<text text-anchor="middle" x="183.4" y="-179.73" font-family="Times,serif" font-size="14.00">Dirichlet</text>
</g>
<!-- y -->
<g id="node5" class="node">
<title>y</title>
<ellipse fill="lightgrey" stroke="black" cx="156.4" cy="-76.48" rx="73.58" ry="37.45"/>
<text text-anchor="middle" x="156.4" y="-87.78" font-family="Times,serif" font-size="14.00">y</text>
<text text-anchor="middle" x="156.4" y="-72.78" font-family="Times,serif" font-size="14.00">~</text>
<text text-anchor="middle" x="156.4" y="-57.78" font-family="Times,serif" font-size="14.00">NormalMixture</text>
</g>
<!-- p&#45;&gt;y -->
<g id="edge2" class="edge">
<title>p&#45;&gt;y</title>
<path fill="none" stroke="black" d="M175.3,-161.44C172.62,-149.57 169.61,-136.2 166.8,-123.67"/>
<polygon fill="black" stroke="black" points="170.2,-122.84 164.59,-113.86 163.37,-124.38 170.2,-122.84"/>
</g>
<!-- means -->
<g id="node2" class="node">
<title>means</title>
<ellipse fill="none" stroke="black" cx="289.4" cy="-198.43" rx="41.94" ry="37.45"/>
<text text-anchor="middle" x="289.4" y="-209.73" font-family="Times,serif" font-size="14.00">means</text>
<text text-anchor="middle" x="289.4" y="-194.73" font-family="Times,serif" font-size="14.00">~</text>
<text text-anchor="middle" x="289.4" y="-179.73" font-family="Times,serif" font-size="14.00">Normal</text>
</g>
<!-- order_means -->
<g id="node3" class="node">
<title>order_means</title>
<polygon fill="none" stroke="black" points="384.63,-59.65 384.63,-93.31 344.66,-117.11 288.13,-117.11 248.16,-93.31 248.16,-59.65 288.13,-35.85 344.66,-35.85 384.63,-59.65"/>
<text text-anchor="middle" x="316.4" y="-87.78" font-family="Times,serif" font-size="14.00">order_means</text>
<text text-anchor="middle" x="316.4" y="-72.78" font-family="Times,serif" font-size="14.00">~</text>
<text text-anchor="middle" x="316.4" y="-57.78" font-family="Times,serif" font-size="14.00">Potential</text>
</g>
<!-- means&#45;&gt;order_means -->
<g id="edge1" class="edge">
<title>means&#45;&gt;order_means</title>
<path fill="none" stroke="black" d="M297.5,-161.44C299.92,-150.66 302.63,-138.64 305.22,-127.14"/>
<polygon fill="black" stroke="black" points="308.67,-127.74 307.45,-117.21 301.84,-126.2 308.67,-127.74"/>
</g>
<!-- means&#45;&gt;y -->
<g id="edge3" class="edge">
<title>means&#45;&gt;y</title>
<path fill="none" stroke="black" d="M269.2,-165.23C260.84,-153.34 250.51,-140.27 239.4,-129.95 231.82,-122.92 223.18,-116.27 214.4,-110.23"/>
<polygon fill="black" stroke="black" points="216.24,-107.25 205.98,-104.62 212.36,-113.07 216.24,-107.25"/>
</g>
<!-- sd -->
<g id="node4" class="node">
<title>sd</title>
<ellipse fill="none" stroke="black" cx="59.4" cy="-198.43" rx="59.29" ry="37.45"/>
<text text-anchor="middle" x="59.4" y="-209.73" font-family="Times,serif" font-size="14.00">sd</text>
<text text-anchor="middle" x="59.4" y="-194.73" font-family="Times,serif" font-size="14.00">~</text>
<text text-anchor="middle" x="59.4" y="-179.73" font-family="Times,serif" font-size="14.00">HalfNormal</text>
</g>
<!-- sd&#45;&gt;y -->
<g id="edge4" class="edge">
<title>sd&#45;&gt;y</title>
<path fill="none" stroke="black" d="M85.9,-164.65C97.17,-150.72 110.44,-134.31 122.41,-119.5"/>
<polygon fill="black" stroke="black" points="125.34,-121.45 128.91,-111.47 119.9,-117.04 125.34,-121.45"/>
</g>
</g>
</svg>
