<?xml version="1.0" encoding="UTF-8" standalone="no"?>
<!DOCTYPE svg PUBLIC "-//W3C//DTD SVG 1.1//EN"
 "http://www.w3.org/Graphics/SVG/1.1/DTD/svg11.dtd">
<!-- Generated by graphviz version 2.48.0 (0)
 -->
<!-- Pages: 1 -->
<svg width="315pt" height="371pt"
 viewBox="0.00 0.00 315.40 370.86" xmlns="http://www.w3.org/2000/svg" xmlns:xlink="http://www.w3.org/1999/xlink">
<g id="graph0" class="graph" transform="scale(1 1) rotate(0) translate(4 366.86)">
<polygon fill="white" stroke="transparent" points="-4,4 -4,-366.86 311.4,-366.86 311.4,4 -4,4"/>
<g id="clust1" class="cluster">
<title>cluster2</title>
<path fill="none" stroke="black" d="M20,-240.91C20,-240.91 207,-240.91 207,-240.91 213,-240.91 219,-246.91 219,-252.91 219,-252.91 219,-342.86 219,-342.86 219,-348.86 213,-354.86 207,-354.86 207,-354.86 20,-354.86 20,-354.86 14,-354.86 8,-348.86 8,-342.86 8,-342.86 8,-252.91 8,-252.91 8,-246.91 14,-240.91 20,-240.91"/>
<text text-anchor="middle" x="207.5" y="-248.71" font-family="Times,serif" font-size="14.00">2</text>
</g>
<g id="clust2" class="cluster">
<title>cluster1,776</title>
<path fill="none" stroke="black" d="M23,-8C23,-8 129,-8 129,-8 135,-8 141,-14 141,-20 141,-20 141,-220.91 141,-220.91 141,-226.91 135,-232.91 129,-232.91 129,-232.91 23,-232.91 23,-232.91 17,-232.91 11,-226.91 11,-220.91 11,-220.91 11,-20 11,-20 11,-14 17,-8 23,-8"/>
<text text-anchor="middle" x="117" y="-15.8" font-family="Times,serif" font-size="14.00">1,776</text>
</g>
<!-- p -->
<g id="node1" class="node">
<title>p</title>
<ellipse fill="none" stroke="black" cx="63" cy="-309.38" rx="46.84" ry="37.45"/>
<text text-anchor="middle" x="63" y="-320.68" font-family="Times,serif" font-size="14.00">p</text>
<text text-anchor="middle" x="63" y="-305.68" font-family="Times,serif" font-size="14.00">~</text>
<text text-anchor="middle" x="63" y="-290.68" font-family="Times,serif" font-size="14.00">Dirichlet</text>
</g>
<!-- z -->
<g id="node3" class="node">
<title>z</title>
<ellipse fill="none" stroke="black" cx="76" cy="-187.43" rx="57.05" ry="37.45"/>
<text text-anchor="middle" x="76" y="-198.73" font-family="Times,serif" font-size="14.00">z</text>
<text text-anchor="middle" x="76" y="-183.73" font-family="Times,serif" font-size="14.00">~</text>
<text text-anchor="middle" x="76" y="-168.73" font-family="Times,serif" font-size="14.00">Categorical</text>
</g>
<!-- p&#45;&gt;z -->
<g id="edge1" class="edge">
<title>p&#45;&gt;z</title>
<path fill="none" stroke="black" d="M66.97,-271.74C68.23,-260.11 69.64,-247.1 70.97,-234.88"/>
<polygon fill="black" stroke="black" points="74.46,-235.17 72.05,-224.85 67.5,-234.41 74.46,-235.17"/>
</g>
<!-- means -->
<g id="node2" class="node">
<title>means</title>
<ellipse fill="none" stroke="black" cx="169" cy="-309.38" rx="41.94" ry="37.45"/>
<text text-anchor="middle" x="169" y="-320.68" font-family="Times,serif" font-size="14.00">means</text>
<text text-anchor="middle" x="169" y="-305.68" font-family="Times,serif" font-size="14.00">~</text>
<text text-anchor="middle" x="169" y="-290.68" font-family="Times,serif" font-size="14.00">Normal</text>
</g>
<!-- y -->
<g id="node4" class="node">
<title>y</title>
<ellipse fill="lightgrey" stroke="black" cx="91" cy="-76.48" rx="41.94" ry="37.45"/>
<text text-anchor="middle" x="91" y="-87.78" font-family="Times,serif" font-size="14.00">y</text>
<text text-anchor="middle" x="91" y="-72.78" font-family="Times,serif" font-size="14.00">~</text>
<text text-anchor="middle" x="91" y="-57.78" font-family="Times,serif" font-size="14.00">Normal</text>
</g>
<!-- means&#45;&gt;y -->
<g id="edge3" class="edge">
<title>means&#45;&gt;y</title>
<path fill="none" stroke="black" d="M167.36,-271.89C164.82,-238.94 158.38,-189.68 142,-149.95 137,-137.83 129.68,-125.75 122.14,-115.02"/>
<polygon fill="black" stroke="black" points="124.81,-112.74 116.08,-106.74 119.15,-116.87 124.81,-112.74"/>
</g>
<!-- z&#45;&gt;y -->
<g id="edge2" class="edge">
<title>z&#45;&gt;y</title>
<path fill="none" stroke="black" d="M81.04,-149.85C82.19,-141.49 83.42,-132.51 84.62,-123.81"/>
<polygon fill="black" stroke="black" points="88.11,-124.16 86,-113.78 81.17,-123.21 88.11,-124.16"/>
</g>
<!-- sd -->
<g id="node5" class="node">
<title>sd</title>
<ellipse fill="none" stroke="black" cx="248" cy="-187.43" rx="59.29" ry="37.45"/>
<text text-anchor="middle" x="248" y="-198.73" font-family="Times,serif" font-size="14.00">sd</text>
<text text-anchor="middle" x="248" y="-183.73" font-family="Times,serif" font-size="14.00">~</text>
<text text-anchor="middle" x="248" y="-168.73" font-family="Times,serif" font-size="14.00">HalfNormal</text>
</g>
<!-- sd&#45;&gt;y -->
<g id="edge4" class="edge">
<title>sd&#45;&gt;y</title>
<path fill="none" stroke="black" d="M208.79,-159.22C185.41,-142.99 155.77,-122.42 132.07,-105.98"/>
<polygon fill="black" stroke="black" points="133.84,-102.95 123.63,-100.12 129.85,-108.7 133.84,-102.95"/>
</g>
</g>
</svg>
