<?xml version="1.0" encoding="UTF-8" standalone="no"?>
<!DOCTYPE svg PUBLIC "-//W3C//DTD SVG 1.1//EN"
 "http://www.w3.org/Graphics/SVG/1.1/DTD/svg11.dtd">
<!-- Generated by graphviz version 2.48.0 (0)
 -->
<!-- Pages: 1 -->
<svg width="355pt" height="260pt"
 viewBox="0.00 0.00 355.40 259.91" xmlns="http://www.w3.org/2000/svg" xmlns:xlink="http://www.w3.org/1999/xlink">
<g id="graph0" class="graph" transform="scale(1 1) rotate(0) translate(4 255.91)">
<polygon fill="white" stroke="transparent" points="-4,4 -4,-255.91 351.4,-255.91 351.4,4 -4,4"/>
<g id="clust1" class="cluster">
<title>cluster2</title>
<path fill="none" stroke="black" d="M20,-129.95C20,-129.95 207,-129.95 207,-129.95 213,-129.95 219,-135.95 219,-141.95 219,-141.95 219,-231.91 219,-231.91 219,-237.91 213,-243.91 207,-243.91 207,-243.91 20,-243.91 20,-243.91 14,-243.91 8,-237.91 8,-231.91 8,-231.91 8,-141.95 8,-141.95 8,-135.95 14,-129.95 20,-129.95"/>
<text text-anchor="middle" x="207.5" y="-137.75" font-family="Times,serif" font-size="14.00">2</text>
</g>
<g id="clust2" class="cluster">
<title>cluster1,776</title>
<path fill="none" stroke="black" d="M94,-8C94,-8 234,-8 234,-8 240,-8 246,-14 246,-20 246,-20 246,-109.95 246,-109.95 246,-115.95 240,-121.95 234,-121.95 234,-121.95 94,-121.95 94,-121.95 88,-121.95 82,-115.95 82,-109.95 82,-109.95 82,-20 82,-20 82,-14 88,-8 94,-8"/>
<text text-anchor="middle" x="222" y="-15.8" font-family="Times,serif" font-size="14.00">1,776</text>
</g>
<!-- p -->
<g id="node1" class="node">
<title>p</title>
<ellipse fill="none" stroke="black" cx="164" cy="-198.43" rx="46.84" ry="37.45"/>
<text text-anchor="middle" x="164" y="-209.73" font-family="Times,serif" font-size="14.00">p</text>
<text text-anchor="middle" x="164" y="-194.73" font-family="Times,serif" font-size="14.00">~</text>
<text text-anchor="middle" x="164" y="-179.73" font-family="Times,serif" font-size="14.00">Dirichlet</text>
</g>
<!-- y -->
<g id="node4" class="node">
<title>y</title>
<ellipse fill="lightgrey" stroke="black" cx="164" cy="-76.48" rx="73.58" ry="37.45"/>
<text text-anchor="middle" x="164" y="-87.78" font-family="Times,serif" font-size="14.00">y</text>
<text text-anchor="middle" x="164" y="-72.78" font-family="Times,serif" font-size="14.00">~</text>
<text text-anchor="middle" x="164" y="-57.78" font-family="Times,serif" font-size="14.00">NormalMixture</text>
</g>
<!-- p&#45;&gt;y -->
<g id="edge1" class="edge">
<title>p&#45;&gt;y</title>
<path fill="none" stroke="black" d="M164,-160.79C164,-149.38 164,-136.65 164,-124.63"/>
<polygon fill="black" stroke="black" points="167.5,-124.31 164,-114.31 160.5,-124.31 167.5,-124.31"/>
</g>
<!-- means -->
<g id="node2" class="node">
<title>means</title>
<ellipse fill="none" stroke="black" cx="58" cy="-198.43" rx="41.94" ry="37.45"/>
<text text-anchor="middle" x="58" y="-209.73" font-family="Times,serif" font-size="14.00">means</text>
<text text-anchor="middle" x="58" y="-194.73" font-family="Times,serif" font-size="14.00">~</text>
<text text-anchor="middle" x="58" y="-179.73" font-family="Times,serif" font-size="14.00">Normal</text>
</g>
<!-- means&#45;&gt;y -->
<g id="edge2" class="edge">
<title>means&#45;&gt;y</title>
<path fill="none" stroke="black" d="M79.53,-165.95C87.96,-154.28 98.01,-141.17 108,-129.95 111.97,-125.49 116.28,-120.98 120.67,-116.58"/>
<polygon fill="black" stroke="black" points="123.4,-118.8 128.1,-109.3 118.5,-113.8 123.4,-118.8"/>
</g>
<!-- sd -->
<g id="node3" class="node">
<title>sd</title>
<ellipse fill="none" stroke="black" cx="288" cy="-198.43" rx="59.29" ry="37.45"/>
<text text-anchor="middle" x="288" y="-209.73" font-family="Times,serif" font-size="14.00">sd</text>
<text text-anchor="middle" x="288" y="-194.73" font-family="Times,serif" font-size="14.00">~</text>
<text text-anchor="middle" x="288" y="-179.73" font-family="Times,serif" font-size="14.00">HalfNormal</text>
</g>
<!-- sd&#45;&gt;y -->
<g id="edge3" class="edge">
<title>sd&#45;&gt;y</title>
<path fill="none" stroke="black" d="M258.4,-165.69C247.46,-154.24 234.85,-141.34 223,-129.95 218.22,-125.36 213.14,-120.63 208.04,-115.97"/>
<polygon fill="black" stroke="black" points="210.36,-113.35 200.59,-109.24 205.66,-118.54 210.36,-113.35"/>
</g>
</g>
</svg>
