<?xml version="1.0" encoding="UTF-8" standalone="no"?>
<!DOCTYPE svg PUBLIC "-//W3C//DTD SVG 1.1//EN"
 "http://www.w3.org/Graphics/SVG/1.1/DTD/svg11.dtd">
<!-- Generated by graphviz version 2.48.0 (0)
 -->
<!-- Pages: 1 -->
<svg width="138pt" height="344pt"
 viewBox="0.00 0.00 138.00 343.86" xmlns="http://www.w3.org/2000/svg" xmlns:xlink="http://www.w3.org/1999/xlink">
<g id="graph0" class="graph" transform="scale(1 1) rotate(0) translate(4 339.86)">
<polygon fill="white" stroke="transparent" points="-4,4 -4,-339.86 134,-339.86 134,4 -4,4"/>
<g id="clust1" class="cluster">
<title>cluster30</title>
<path fill="none" stroke="black" d="M20,-8C20,-8 110,-8 110,-8 116,-8 122,-14 122,-20 122,-20 122,-109.95 122,-109.95 122,-115.95 116,-121.95 110,-121.95 110,-121.95 20,-121.95 20,-121.95 14,-121.95 8,-115.95 8,-109.95 8,-109.95 8,-20 8,-20 8,-14 14,-8 20,-8"/>
<text text-anchor="middle" x="107" y="-15.8" font-family="Times,serif" font-size="14.00">30</text>
</g>
<!-- θ -->
<g id="node1" class="node">
<title>θ</title>
<ellipse fill="none" stroke="black" cx="65" cy="-187.43" rx="29.9" ry="37.45"/>
<text text-anchor="middle" x="65" y="-198.73" font-family="Times,serif" font-size="14.00">θ</text>
<text text-anchor="middle" x="65" y="-183.73" font-family="Times,serif" font-size="14.00">~</text>
<text text-anchor="middle" x="65" y="-168.73" font-family="Times,serif" font-size="14.00">Beta</text>
</g>
<!-- y -->
<g id="node3" class="node">
<title>y</title>
<ellipse fill="lightgrey" stroke="black" cx="65" cy="-76.48" rx="48.58" ry="37.45"/>
<text text-anchor="middle" x="65" y="-87.78" font-family="Times,serif" font-size="14.00">y</text>
<text text-anchor="middle" x="65" y="-72.78" font-family="Times,serif" font-size="14.00">~</text>
<text text-anchor="middle" x="65" y="-57.78" font-family="Times,serif" font-size="14.00">Bernoulli</text>
</g>
<!-- θ&#45;&gt;y -->
<g id="edge2" class="edge">
<title>θ&#45;&gt;y</title>
<path fill="none" stroke="black" d="M65,-149.85C65,-141.67 65,-132.89 65,-124.37"/>
<polygon fill="black" stroke="black" points="68.5,-124.15 65,-114.15 61.5,-124.15 68.5,-124.15"/>
</g>
<!-- model_index -->
<g id="node2" class="node">
<title>model_index</title>
<ellipse fill="none" stroke="black" cx="65" cy="-298.38" rx="63.78" ry="37.45"/>
<text text-anchor="middle" x="65" y="-309.68" font-family="Times,serif" font-size="14.00">model_index</text>
<text text-anchor="middle" x="65" y="-294.68" font-family="Times,serif" font-size="14.00">~</text>
<text text-anchor="middle" x="65" y="-279.68" font-family="Times,serif" font-size="14.00">Categorical</text>
</g>
<!-- model_index&#45;&gt;θ -->
<g id="edge1" class="edge">
<title>model_index&#45;&gt;θ</title>
<path fill="none" stroke="black" d="M65,-260.8C65,-252.63 65,-243.85 65,-235.32"/>
<polygon fill="black" stroke="black" points="68.5,-235.1 65,-225.1 61.5,-235.1 68.5,-235.1"/>
</g>
</g>
</svg>
