<?xml version="1.0" encoding="UTF-8" standalone="no"?>
<!DOCTYPE svg PUBLIC "-//W3C//DTD SVG 1.1//EN"
 "http://www.w3.org/Graphics/SVG/1.1/DTD/svg11.dtd">
<!-- Generated by graphviz version 2.48.0 (0)
 -->
<!-- Pages: 1 -->
<svg width="286pt" height="341pt"
 viewBox="0.00 0.00 286.00 340.91" xmlns="http://www.w3.org/2000/svg" xmlns:xlink="http://www.w3.org/1999/xlink">
<g id="graph0" class="graph" transform="scale(1 1) rotate(0) translate(4 336.91)">
<polygon fill="white" stroke="transparent" points="-4,4 -4,-336.91 282,-336.91 282,4 -4,4"/>
<g id="clust1" class="cluster">
<title>cluster2</title>
<path fill="none" stroke="black" d="M20,-210.95C20,-210.95 130,-210.95 130,-210.95 136,-210.95 142,-216.95 142,-222.95 142,-222.95 142,-312.91 142,-312.91 142,-318.91 136,-324.91 130,-324.91 130,-324.91 20,-324.91 20,-324.91 14,-324.91 8,-318.91 8,-312.91 8,-312.91 8,-222.95 8,-222.95 8,-216.95 14,-210.95 20,-210.95"/>
<text text-anchor="middle" x="130.5" y="-218.75" font-family="Times,serif" font-size="14.00">2</text>
</g>
<g id="clust2" class="cluster">
<title>cluster400</title>
<path fill="none" stroke="black" d="M162,-8C162,-8 258,-8 258,-8 264,-8 270,-14 270,-20 270,-20 270,-312.91 270,-312.91 270,-318.91 264,-324.91 258,-324.91 258,-324.91 162,-324.91 162,-324.91 156,-324.91 150,-318.91 150,-312.91 150,-312.91 150,-20 150,-20 150,-14 156,-8 162,-8"/>
<text text-anchor="middle" x="251.5" y="-15.8" font-family="Times,serif" font-size="14.00">400</text>
</g>
<!-- ℓ -->
<g id="node1" class="node">
<title>ℓ</title>
<ellipse fill="none" stroke="black" cx="75" cy="-279.43" rx="59.29" ry="37.45"/>
<text text-anchor="middle" x="75" y="-290.73" font-family="Times,serif" font-size="14.00">ℓ</text>
<text text-anchor="middle" x="75" y="-275.73" font-family="Times,serif" font-size="14.00">~</text>
<text text-anchor="middle" x="75" y="-260.73" font-family="Times,serif" font-size="14.00">HalfNormal</text>
</g>
<!-- f -->
<g id="node3" class="node">
<title>f</title>
<polygon fill="none" stroke="black" points="253.5,-202.95 160.5,-202.95 160.5,-149.95 253.5,-149.95 253.5,-202.95"/>
<text text-anchor="middle" x="207" y="-187.75" font-family="Times,serif" font-size="14.00">f</text>
<text text-anchor="middle" x="207" y="-172.75" font-family="Times,serif" font-size="14.00">~</text>
<text text-anchor="middle" x="207" y="-157.75" font-family="Times,serif" font-size="14.00">Deterministic</text>
</g>
<!-- ℓ&#45;&gt;f -->
<g id="edge1" class="edge">
<title>ℓ&#45;&gt;f</title>
<path fill="none" stroke="black" d="M104.92,-246.69C117.05,-234.73 131.58,-221.49 146,-210.95 147.82,-209.62 149.7,-208.3 151.63,-207.01"/>
<polygon fill="black" stroke="black" points="153.73,-209.82 160.26,-201.48 149.95,-203.93 153.73,-209.82"/>
</g>
<!-- y -->
<g id="node2" class="node">
<title>y</title>
<ellipse fill="lightgrey" stroke="black" cx="207" cy="-76.48" rx="42.35" ry="37.45"/>
<text text-anchor="middle" x="207" y="-87.78" font-family="Times,serif" font-size="14.00">y</text>
<text text-anchor="middle" x="207" y="-72.78" font-family="Times,serif" font-size="14.00">~</text>
<text text-anchor="middle" x="207" y="-57.78" font-family="Times,serif" font-size="14.00">Poisson</text>
</g>
<!-- f&#45;&gt;y -->
<g id="edge3" class="edge">
<title>f&#45;&gt;y</title>
<path fill="none" stroke="black" d="M207,-149.71C207,-141.89 207,-133.03 207,-124.27"/>
<polygon fill="black" stroke="black" points="210.5,-124.1 207,-114.1 203.5,-124.1 210.5,-124.1"/>
</g>
<!-- f_rotated_ -->
<g id="node4" class="node">
<title>f_rotated_</title>
<ellipse fill="none" stroke="black" cx="210" cy="-279.43" rx="52.15" ry="37.45"/>
<text text-anchor="middle" x="210" y="-290.73" font-family="Times,serif" font-size="14.00">f_rotated_</text>
<text text-anchor="middle" x="210" y="-275.73" font-family="Times,serif" font-size="14.00">~</text>
<text text-anchor="middle" x="210" y="-260.73" font-family="Times,serif" font-size="14.00">Normal</text>
</g>
<!-- f_rotated_&#45;&gt;f -->
<g id="edge2" class="edge">
<title>f_rotated_&#45;&gt;f</title>
<path fill="none" stroke="black" d="M208.91,-241.69C208.63,-232.43 208.34,-222.5 208.06,-213.29"/>
<polygon fill="black" stroke="black" points="211.56,-213.15 207.77,-203.26 204.57,-213.36 211.56,-213.15"/>
</g>
</g>
</svg>
