<?xml version="1.0" encoding="UTF-8" standalone="no"?>
<!DOCTYPE svg PUBLIC "-//W3C//DTD SVG 1.1//EN"
 "http://www.w3.org/Graphics/SVG/1.1/DTD/svg11.dtd">
<!-- Generated by graphviz version 2.48.0 (0)
 -->
<!-- Pages: 1 -->
<svg width="265pt" height="338pt"
 viewBox="0.00 0.00 265.40 337.91" xmlns="http://www.w3.org/2000/svg" xmlns:xlink="http://www.w3.org/1999/xlink">
<g id="graph0" class="graph" transform="scale(1 1) rotate(0) translate(4 333.91)">
<polygon fill="white" stroke="transparent" points="-4,4 -4,-333.91 261.4,-333.91 261.4,4 -4,4"/>
<g id="clust1" class="cluster">
<title>cluster27</title>
<path fill="none" stroke="black" d="M141.4,-8C141.4,-8 237.4,-8 237.4,-8 243.4,-8 249.4,-14 249.4,-20 249.4,-20 249.4,-309.91 249.4,-309.91 249.4,-315.91 243.4,-321.91 237.4,-321.91 237.4,-321.91 141.4,-321.91 141.4,-321.91 135.4,-321.91 129.4,-315.91 129.4,-309.91 129.4,-309.91 129.4,-20 129.4,-20 129.4,-14 135.4,-8 141.4,-8"/>
<text text-anchor="middle" x="234.4" y="-15.8" font-family="Times,serif" font-size="14.00">27</text>
</g>
<!-- ℓ -->
<g id="node1" class="node">
<title>ℓ</title>
<ellipse fill="none" stroke="black" cx="59.4" cy="-276.43" rx="59.29" ry="37.45"/>
<text text-anchor="middle" x="59.4" y="-287.73" font-family="Times,serif" font-size="14.00">ℓ</text>
<text text-anchor="middle" x="59.4" y="-272.73" font-family="Times,serif" font-size="14.00">~</text>
<text text-anchor="middle" x="59.4" y="-257.73" font-family="Times,serif" font-size="14.00">HalfNormal</text>
</g>
<!-- f -->
<g id="node3" class="node">
<title>f</title>
<polygon fill="none" stroke="black" points="232.9,-202.95 139.9,-202.95 139.9,-149.95 232.9,-149.95 232.9,-202.95"/>
<text text-anchor="middle" x="186.4" y="-187.75" font-family="Times,serif" font-size="14.00">f</text>
<text text-anchor="middle" x="186.4" y="-172.75" font-family="Times,serif" font-size="14.00">~</text>
<text text-anchor="middle" x="186.4" y="-157.75" font-family="Times,serif" font-size="14.00">Deterministic</text>
</g>
<!-- ℓ&#45;&gt;f -->
<g id="edge1" class="edge">
<title>ℓ&#45;&gt;f</title>
<path fill="none" stroke="black" d="M96.47,-246.83C111.68,-235.09 129.36,-221.46 144.99,-209.39"/>
<polygon fill="black" stroke="black" points="147.18,-212.13 152.96,-203.25 142.9,-206.59 147.18,-212.13"/>
</g>
<!-- y_pred -->
<g id="node2" class="node">
<title>y_pred</title>
<ellipse fill="lightgrey" stroke="black" cx="186.4" cy="-76.48" rx="42.35" ry="37.45"/>
<text text-anchor="middle" x="186.4" y="-87.78" font-family="Times,serif" font-size="14.00">y_pred</text>
<text text-anchor="middle" x="186.4" y="-72.78" font-family="Times,serif" font-size="14.00">~</text>
<text text-anchor="middle" x="186.4" y="-57.78" font-family="Times,serif" font-size="14.00">Poisson</text>
</g>
<!-- f&#45;&gt;y_pred -->
<g id="edge3" class="edge">
<title>f&#45;&gt;y_pred</title>
<path fill="none" stroke="black" d="M186.4,-149.71C186.4,-141.89 186.4,-133.03 186.4,-124.27"/>
<polygon fill="black" stroke="black" points="189.9,-124.1 186.4,-114.1 182.9,-124.1 189.9,-124.1"/>
</g>
<!-- f_rotated_ -->
<g id="node4" class="node">
<title>f_rotated_</title>
<ellipse fill="none" stroke="black" cx="189.4" cy="-276.43" rx="52.15" ry="37.45"/>
<text text-anchor="middle" x="189.4" y="-287.73" font-family="Times,serif" font-size="14.00">f_rotated_</text>
<text text-anchor="middle" x="189.4" y="-272.73" font-family="Times,serif" font-size="14.00">~</text>
<text text-anchor="middle" x="189.4" y="-257.73" font-family="Times,serif" font-size="14.00">Normal</text>
</g>
<!-- f_rotated_&#45;&gt;f -->
<g id="edge2" class="edge">
<title>f_rotated_&#45;&gt;f</title>
<path fill="none" stroke="black" d="M188.28,-238.95C188.02,-230.53 187.75,-221.59 187.49,-213.2"/>
<polygon fill="black" stroke="black" points="190.98,-212.85 187.18,-202.96 183.99,-213.07 190.98,-212.85"/>
</g>
</g>
</svg>
