<?xml version="1.0" encoding="UTF-8" standalone="no"?>
<!DOCTYPE svg PUBLIC "-//W3C//DTD SVG 1.1//EN"
 "http://www.w3.org/Graphics/SVG/1.1/DTD/svg11.dtd">
<!-- Generated by graphviz version 2.48.0 (0)
 -->
<!-- Pages: 1 -->
<svg width="486pt" height="360pt"
 viewBox="0.00 0.00 486.12 359.86" xmlns="http://www.w3.org/2000/svg" xmlns:xlink="http://www.w3.org/1999/xlink">
<g id="graph0" class="graph" transform="scale(1 1) rotate(0) translate(4 355.86)">
<polygon fill="white" stroke="transparent" points="-4,4 -4,-355.86 482.12,-355.86 482.12,4 -4,4"/>
<g id="clust1" class="cluster">
<title>cluster10</title>
<path fill="none" stroke="black" d="M103.72,-8C103.72,-8 199.72,-8 199.72,-8 205.72,-8 211.72,-14 211.72,-20 211.72,-20 211.72,-331.86 211.72,-331.86 211.72,-337.86 205.72,-343.86 199.72,-343.86 199.72,-343.86 103.72,-343.86 103.72,-343.86 97.72,-343.86 91.72,-337.86 91.72,-331.86 91.72,-331.86 91.72,-20 91.72,-20 91.72,-14 97.72,-8 103.72,-8"/>
<text text-anchor="middle" x="196.72" y="-15.8" font-family="Times,serif" font-size="14.00">10</text>
</g>
<!-- α -->
<g id="node1" class="node">
<title>α</title>
<ellipse fill="none" stroke="black" cx="41.72" cy="-187.43" rx="41.94" ry="37.45"/>
<text text-anchor="middle" x="41.72" y="-198.73" font-family="Times,serif" font-size="14.00">α</text>
<text text-anchor="middle" x="41.72" y="-183.73" font-family="Times,serif" font-size="14.00">~</text>
<text text-anchor="middle" x="41.72" y="-168.73" font-family="Times,serif" font-size="14.00">Normal</text>
</g>
<!-- tt_pred -->
<g id="node5" class="node">
<title>tt_pred</title>
<ellipse fill="lightgrey" stroke="black" cx="155.72" cy="-76.48" rx="42.35" ry="37.45"/>
<text text-anchor="middle" x="155.72" y="-87.78" font-family="Times,serif" font-size="14.00">tt_pred</text>
<text text-anchor="middle" x="155.72" y="-72.78" font-family="Times,serif" font-size="14.00">~</text>
<text text-anchor="middle" x="155.72" y="-57.78" font-family="Times,serif" font-size="14.00">Poisson</text>
</g>
<!-- α&#45;&gt;tt_pred -->
<g id="edge4" class="edge">
<title>α&#45;&gt;tt_pred</title>
<path fill="none" stroke="black" d="M69.9,-159.5C85.11,-144.96 104.03,-126.88 120.24,-111.39"/>
<polygon fill="black" stroke="black" points="122.66,-113.92 127.47,-104.48 117.82,-108.86 122.66,-113.92"/>
</g>
<!-- η -->
<g id="node2" class="node">
<title>η</title>
<ellipse fill="none" stroke="black" cx="281.72" cy="-298.38" rx="59.29" ry="37.45"/>
<text text-anchor="middle" x="281.72" y="-309.68" font-family="Times,serif" font-size="14.00">η</text>
<text text-anchor="middle" x="281.72" y="-294.68" font-family="Times,serif" font-size="14.00">~</text>
<text text-anchor="middle" x="281.72" y="-279.68" font-family="Times,serif" font-size="14.00">HalfCauchy</text>
</g>
<!-- f -->
<g id="node6" class="node">
<title>f</title>
<polygon fill="none" stroke="black" points="202.22,-213.93 109.22,-213.93 109.22,-160.93 202.22,-160.93 202.22,-213.93"/>
<text text-anchor="middle" x="155.72" y="-198.73" font-family="Times,serif" font-size="14.00">f</text>
<text text-anchor="middle" x="155.72" y="-183.73" font-family="Times,serif" font-size="14.00">~</text>
<text text-anchor="middle" x="155.72" y="-168.73" font-family="Times,serif" font-size="14.00">Deterministic</text>
</g>
<!-- η&#45;&gt;f -->
<g id="edge1" class="edge">
<title>η&#45;&gt;f</title>
<path fill="none" stroke="black" d="M247.29,-267.61C230.48,-253.08 210.23,-235.57 193.05,-220.71"/>
<polygon fill="black" stroke="black" points="195.25,-217.99 185.4,-214.1 190.67,-223.28 195.25,-217.99"/>
</g>
<!-- ℓ -->
<g id="node3" class="node">
<title>ℓ</title>
<ellipse fill="none" stroke="black" cx="418.72" cy="-298.38" rx="59.29" ry="37.45"/>
<text text-anchor="middle" x="418.72" y="-309.68" font-family="Times,serif" font-size="14.00">ℓ</text>
<text text-anchor="middle" x="418.72" y="-294.68" font-family="Times,serif" font-size="14.00">~</text>
<text text-anchor="middle" x="418.72" y="-279.68" font-family="Times,serif" font-size="14.00">HalfCauchy</text>
</g>
<!-- ℓ&#45;&gt;f -->
<g id="edge2" class="edge">
<title>ℓ&#45;&gt;f</title>
<path fill="none" stroke="black" d="M375.27,-272.46C366.94,-268.25 358.18,-264.19 349.72,-260.91 290.22,-237.84 269,-250.9 210.72,-224.91 206.89,-223.2 203.04,-221.24 199.24,-219.13"/>
<polygon fill="black" stroke="black" points="200.91,-216.05 190.52,-213.98 197.36,-222.08 200.91,-216.05"/>
</g>
<!-- β -->
<g id="node4" class="node">
<title>β</title>
<ellipse fill="none" stroke="black" cx="261.72" cy="-187.43" rx="41.94" ry="37.45"/>
<text text-anchor="middle" x="261.72" y="-198.73" font-family="Times,serif" font-size="14.00">β</text>
<text text-anchor="middle" x="261.72" y="-183.73" font-family="Times,serif" font-size="14.00">~</text>
<text text-anchor="middle" x="261.72" y="-168.73" font-family="Times,serif" font-size="14.00">Normal</text>
</g>
<!-- β&#45;&gt;tt_pred -->
<g id="edge5" class="edge">
<title>β&#45;&gt;tt_pred</title>
<path fill="none" stroke="black" d="M234.7,-158.65C221.22,-144.8 204.77,-127.89 190.37,-113.1"/>
<polygon fill="black" stroke="black" points="192.54,-110.31 183.06,-105.58 187.53,-115.19 192.54,-110.31"/>
</g>
<!-- f&#45;&gt;tt_pred -->
<g id="edge6" class="edge">
<title>f&#45;&gt;tt_pred</title>
<path fill="none" stroke="black" d="M155.72,-160.89C155.72,-149.98 155.72,-136.89 155.72,-124.35"/>
<polygon fill="black" stroke="black" points="159.22,-124 155.72,-114 152.22,-124 159.22,-124"/>
</g>
<!-- f_rotated_ -->
<g id="node7" class="node">
<title>f_rotated_</title>
<ellipse fill="none" stroke="black" cx="151.72" cy="-298.38" rx="52.15" ry="37.45"/>
<text text-anchor="middle" x="151.72" y="-309.68" font-family="Times,serif" font-size="14.00">f_rotated_</text>
<text text-anchor="middle" x="151.72" y="-294.68" font-family="Times,serif" font-size="14.00">~</text>
<text text-anchor="middle" x="151.72" y="-279.68" font-family="Times,serif" font-size="14.00">Normal</text>
</g>
<!-- f_rotated_&#45;&gt;f -->
<g id="edge3" class="edge">
<title>f_rotated_&#45;&gt;f</title>
<path fill="none" stroke="black" d="M153.06,-260.8C153.49,-249.06 153.97,-236.08 154.4,-224.38"/>
<polygon fill="black" stroke="black" points="157.91,-224.2 154.78,-214.08 150.91,-223.95 157.91,-224.2"/>
</g>
</g>
</svg>
