<?xml version="1.0" encoding="UTF-8" standalone="no"?>
<!DOCTYPE svg PUBLIC "-//W3C//DTD SVG 1.1//EN"
 "http://www.w3.org/Graphics/SVG/1.1/DTD/svg11.dtd">
<!-- Generated by graphviz version 2.48.0 (0)
 -->
<!-- Pages: 1 -->
<svg width="280pt" height="338pt"
 viewBox="0.00 0.00 280.00 337.91" xmlns="http://www.w3.org/2000/svg" xmlns:xlink="http://www.w3.org/1999/xlink">
<g id="graph0" class="graph" transform="scale(1 1) rotate(0) translate(4 333.91)">
<polygon fill="white" stroke="transparent" points="-4,4 -4,-333.91 276,-333.91 276,4 -4,4"/>
<g id="clust1" class="cluster">
<title>cluster60</title>
<path fill="none" stroke="black" d="M20,-8C20,-8 116,-8 116,-8 122,-8 128,-14 128,-20 128,-20 128,-309.91 128,-309.91 128,-315.91 122,-321.91 116,-321.91 116,-321.91 20,-321.91 20,-321.91 14,-321.91 8,-315.91 8,-309.91 8,-309.91 8,-20 8,-20 8,-14 14,-8 20,-8"/>
<text text-anchor="middle" x="113" y="-15.8" font-family="Times,serif" font-size="14.00">60</text>
</g>
<g id="clust2" class="cluster">
<title>cluster200</title>
<path fill="none" stroke="black" d="M148,-8C148,-8 252,-8 252,-8 258,-8 264,-14 264,-20 264,-20 264,-109.95 264,-109.95 264,-115.95 258,-121.95 252,-121.95 252,-121.95 148,-121.95 148,-121.95 142,-121.95 136,-115.95 136,-109.95 136,-109.95 136,-20 136,-20 136,-14 142,-8 148,-8"/>
<text text-anchor="middle" x="245.5" y="-15.8" font-family="Times,serif" font-size="14.00">200</text>
</g>
<!-- ℓ -->
<g id="node1" class="node">
<title>ℓ</title>
<ellipse fill="none" stroke="black" cx="199" cy="-276.43" rx="59.29" ry="37.45"/>
<text text-anchor="middle" x="199" y="-287.73" font-family="Times,serif" font-size="14.00">ℓ</text>
<text text-anchor="middle" x="199" y="-272.73" font-family="Times,serif" font-size="14.00">~</text>
<text text-anchor="middle" x="199" y="-257.73" font-family="Times,serif" font-size="14.00">HalfCauchy</text>
</g>
<!-- f -->
<g id="node3" class="node">
<title>f</title>
<polygon fill="none" stroke="black" points="118.5,-202.95 25.5,-202.95 25.5,-149.95 118.5,-149.95 118.5,-202.95"/>
<text text-anchor="middle" x="72" y="-187.75" font-family="Times,serif" font-size="14.00">f</text>
<text text-anchor="middle" x="72" y="-172.75" font-family="Times,serif" font-size="14.00">~</text>
<text text-anchor="middle" x="72" y="-157.75" font-family="Times,serif" font-size="14.00">Deterministic</text>
</g>
<!-- ℓ&#45;&gt;f -->
<g id="edge1" class="edge">
<title>ℓ&#45;&gt;f</title>
<path fill="none" stroke="black" d="M161.92,-246.83C146.71,-235.09 129.04,-221.46 113.4,-209.39"/>
<polygon fill="black" stroke="black" points="115.49,-206.59 105.44,-203.25 111.22,-212.13 115.49,-206.59"/>
</g>
<!-- f_pred -->
<g id="node5" class="node">
<title>f_pred</title>
<ellipse fill="none" stroke="black" cx="200" cy="-76.48" rx="55.72" ry="37.45"/>
<text text-anchor="middle" x="200" y="-87.78" font-family="Times,serif" font-size="14.00">f_pred</text>
<text text-anchor="middle" x="200" y="-72.78" font-family="Times,serif" font-size="14.00">~</text>
<text text-anchor="middle" x="200" y="-57.78" font-family="Times,serif" font-size="14.00">MvNormal</text>
</g>
<!-- ℓ&#45;&gt;f_pred -->
<g id="edge4" class="edge">
<title>ℓ&#45;&gt;f_pred</title>
<path fill="none" stroke="black" d="M199.19,-238.66C199.35,-206.44 199.59,-159.42 199.76,-124.48"/>
<polygon fill="black" stroke="black" points="203.26,-124.07 199.82,-114.05 196.26,-124.03 203.26,-124.07"/>
</g>
<!-- y -->
<g id="node2" class="node">
<title>y</title>
<ellipse fill="lightgrey" stroke="black" cx="71" cy="-76.48" rx="48.58" ry="37.45"/>
<text text-anchor="middle" x="71" y="-87.78" font-family="Times,serif" font-size="14.00">y</text>
<text text-anchor="middle" x="71" y="-72.78" font-family="Times,serif" font-size="14.00">~</text>
<text text-anchor="middle" x="71" y="-57.78" font-family="Times,serif" font-size="14.00">Bernoulli</text>
</g>
<!-- f&#45;&gt;y -->
<g id="edge3" class="edge">
<title>f&#45;&gt;y</title>
<path fill="none" stroke="black" d="M71.74,-149.71C71.66,-141.89 71.57,-133.03 71.48,-124.27"/>
<polygon fill="black" stroke="black" points="74.98,-124.06 71.37,-114.1 67.98,-124.13 74.98,-124.06"/>
</g>
<!-- f&#45;&gt;f_pred -->
<g id="edge5" class="edge">
<title>f&#45;&gt;f_pred</title>
<path fill="none" stroke="black" d="M105.63,-149.71C120.89,-138.03 139.16,-124.05 155.54,-111.51"/>
<polygon fill="black" stroke="black" points="158.09,-113.96 163.9,-105.11 153.83,-108.41 158.09,-113.96"/>
</g>
<!-- f_rotated_ -->
<g id="node4" class="node">
<title>f_rotated_</title>
<ellipse fill="none" stroke="black" cx="68" cy="-276.43" rx="52.15" ry="37.45"/>
<text text-anchor="middle" x="68" y="-287.73" font-family="Times,serif" font-size="14.00">f_rotated_</text>
<text text-anchor="middle" x="68" y="-272.73" font-family="Times,serif" font-size="14.00">~</text>
<text text-anchor="middle" x="68" y="-257.73" font-family="Times,serif" font-size="14.00">Normal</text>
</g>
<!-- f_rotated_&#45;&gt;f -->
<g id="edge2" class="edge">
<title>f_rotated_&#45;&gt;f</title>
<path fill="none" stroke="black" d="M69.49,-238.95C69.83,-230.53 70.2,-221.59 70.54,-213.2"/>
<polygon fill="black" stroke="black" points="74.05,-213.1 70.96,-202.96 67.05,-212.81 74.05,-213.1"/>
</g>
</g>
</svg>
