<?xml version="1.0" encoding="UTF-8" standalone="no"?>
<!DOCTYPE svg PUBLIC "-//W3C//DTD SVG 1.1//EN"
 "http://www.w3.org/Graphics/SVG/1.1/DTD/svg11.dtd">
<!-- Generated by graphviz version 2.48.0 (0)
 -->
<!-- Pages: 1 -->
<svg width="455pt" height="338pt"
 viewBox="0.00 0.00 454.53 337.91" xmlns="http://www.w3.org/2000/svg" xmlns:xlink="http://www.w3.org/1999/xlink">
<g id="graph0" class="graph" transform="scale(1 1) rotate(0) translate(4 333.91)">
<polygon fill="white" stroke="transparent" points="-4,4 -4,-333.91 450.53,-333.91 450.53,4 -4,4"/>
<g id="clust1" class="cluster">
<title>cluster100</title>
<path fill="none" stroke="black" d="M108.13,-8C108.13,-8 204.13,-8 204.13,-8 210.13,-8 216.13,-14 216.13,-20 216.13,-20 216.13,-309.91 216.13,-309.91 216.13,-315.91 210.13,-321.91 204.13,-321.91 204.13,-321.91 108.13,-321.91 108.13,-321.91 102.13,-321.91 96.13,-315.91 96.13,-309.91 96.13,-309.91 96.13,-20 96.13,-20 96.13,-14 102.13,-8 108.13,-8"/>
<text text-anchor="middle" x="197.63" y="-15.8" font-family="Times,serif" font-size="14.00">100</text>
</g>
<!-- ℓ -->
<g id="node1" class="node">
<title>ℓ</title>
<ellipse fill="none" stroke="black" cx="43.13" cy="-276.43" rx="43.27" ry="37.45"/>
<text text-anchor="middle" x="43.13" y="-287.73" font-family="Times,serif" font-size="14.00">ℓ</text>
<text text-anchor="middle" x="43.13" y="-272.73" font-family="Times,serif" font-size="14.00">~</text>
<text text-anchor="middle" x="43.13" y="-257.73" font-family="Times,serif" font-size="14.00">Gamma</text>
</g>
<!-- f -->
<g id="node5" class="node">
<title>f</title>
<polygon fill="none" stroke="black" points="203.63,-202.95 110.63,-202.95 110.63,-149.95 203.63,-149.95 203.63,-202.95"/>
<text text-anchor="middle" x="157.13" y="-187.75" font-family="Times,serif" font-size="14.00">f</text>
<text text-anchor="middle" x="157.13" y="-172.75" font-family="Times,serif" font-size="14.00">~</text>
<text text-anchor="middle" x="157.13" y="-157.75" font-family="Times,serif" font-size="14.00">Deterministic</text>
</g>
<!-- ℓ&#45;&gt;f -->
<g id="edge2" class="edge">
<title>ℓ&#45;&gt;f</title>
<path fill="none" stroke="black" d="M73.38,-249.43C87.54,-237.27 104.54,-222.65 119.52,-209.78"/>
<polygon fill="black" stroke="black" points="121.83,-212.41 127.14,-203.23 117.27,-207.1 121.83,-212.41"/>
</g>
<!-- c -->
<g id="node2" class="node">
<title>c</title>
<ellipse fill="none" stroke="black" cx="268.13" cy="-276.43" rx="41.94" ry="37.45"/>
<text text-anchor="middle" x="268.13" y="-287.73" font-family="Times,serif" font-size="14.00">c</text>
<text text-anchor="middle" x="268.13" y="-272.73" font-family="Times,serif" font-size="14.00">~</text>
<text text-anchor="middle" x="268.13" y="-257.73" font-family="Times,serif" font-size="14.00">Normal</text>
</g>
<!-- c&#45;&gt;f -->
<g id="edge3" class="edge">
<title>c&#45;&gt;f</title>
<path fill="none" stroke="black" d="M238.68,-249.43C225.02,-237.38 208.65,-222.92 194.16,-210.14"/>
<polygon fill="black" stroke="black" points="196.15,-207.23 186.34,-203.23 191.52,-212.48 196.15,-207.23"/>
</g>
<!-- τ -->
<g id="node3" class="node">
<title>τ</title>
<ellipse fill="none" stroke="black" cx="387.13" cy="-276.43" rx="59.29" ry="37.45"/>
<text text-anchor="middle" x="387.13" y="-287.73" font-family="Times,serif" font-size="14.00">τ</text>
<text text-anchor="middle" x="387.13" y="-272.73" font-family="Times,serif" font-size="14.00">~</text>
<text text-anchor="middle" x="387.13" y="-257.73" font-family="Times,serif" font-size="14.00">HalfNormal</text>
</g>
<!-- τ&#45;&gt;f -->
<g id="edge4" class="edge">
<title>τ&#45;&gt;f</title>
<path fill="none" stroke="black" d="M343.29,-250.84C335.34,-246.69 327.06,-242.56 319.13,-238.95 284.65,-223.24 244.88,-208.1 213.37,-196.77"/>
<polygon fill="black" stroke="black" points="214.47,-193.45 203.87,-193.38 212.12,-200.04 214.47,-193.45"/>
</g>
<!-- y -->
<g id="node4" class="node">
<title>y</title>
<ellipse fill="lightgrey" stroke="black" cx="157.13" cy="-76.48" rx="48.58" ry="37.45"/>
<text text-anchor="middle" x="157.13" y="-87.78" font-family="Times,serif" font-size="14.00">y</text>
<text text-anchor="middle" x="157.13" y="-72.78" font-family="Times,serif" font-size="14.00">~</text>
<text text-anchor="middle" x="157.13" y="-57.78" font-family="Times,serif" font-size="14.00">Bernoulli</text>
</g>
<!-- f&#45;&gt;y -->
<g id="edge5" class="edge">
<title>f&#45;&gt;y</title>
<path fill="none" stroke="black" d="M157.13,-149.71C157.13,-141.89 157.13,-133.03 157.13,-124.27"/>
<polygon fill="black" stroke="black" points="160.63,-124.1 157.13,-114.1 153.63,-124.1 160.63,-124.1"/>
</g>
<!-- f_rotated_ -->
<g id="node6" class="node">
<title>f_rotated_</title>
<ellipse fill="none" stroke="black" cx="156.13" cy="-276.43" rx="52.15" ry="37.45"/>
<text text-anchor="middle" x="156.13" y="-287.73" font-family="Times,serif" font-size="14.00">f_rotated_</text>
<text text-anchor="middle" x="156.13" y="-272.73" font-family="Times,serif" font-size="14.00">~</text>
<text text-anchor="middle" x="156.13" y="-257.73" font-family="Times,serif" font-size="14.00">Normal</text>
</g>
<!-- f_rotated_&#45;&gt;f -->
<g id="edge1" class="edge">
<title>f_rotated_&#45;&gt;f</title>
<path fill="none" stroke="black" d="M156.51,-238.95C156.59,-230.53 156.68,-221.59 156.77,-213.2"/>
<polygon fill="black" stroke="black" points="160.27,-213 156.87,-202.96 153.27,-212.93 160.27,-213"/>
</g>
</g>
</svg>
