<?xml version="1.0" encoding="UTF-8" standalone="no"?>
<!DOCTYPE svg PUBLIC "-//W3C//DTD SVG 1.1//EN"
 "http://www.w3.org/Graphics/SVG/1.1/DTD/svg11.dtd">
<!-- Generated by graphviz version 2.48.0 (0)
 -->
<!-- Pages: 1 -->
<svg width="232pt" height="338pt"
 viewBox="0.00 0.00 232.13 337.91" xmlns="http://www.w3.org/2000/svg" xmlns:xlink="http://www.w3.org/1999/xlink">
<g id="graph0" class="graph" transform="scale(1 1) rotate(0) translate(4 333.91)">
<polygon fill="white" stroke="transparent" points="-4,4 -4,-333.91 228.13,-333.91 228.13,4 -4,4"/>
<g id="clust1" class="cluster">
<title>cluster100</title>
<path fill="none" stroke="black" d="M108.13,-8C108.13,-8 204.13,-8 204.13,-8 210.13,-8 216.13,-14 216.13,-20 216.13,-20 216.13,-309.91 216.13,-309.91 216.13,-315.91 210.13,-321.91 204.13,-321.91 204.13,-321.91 108.13,-321.91 108.13,-321.91 102.13,-321.91 96.13,-315.91 96.13,-309.91 96.13,-309.91 96.13,-20 96.13,-20 96.13,-14 102.13,-8 108.13,-8"/>
<text text-anchor="middle" x="197.63" y="-15.8" font-family="Times,serif" font-size="14.00">100</text>
</g>
<!-- ℓ -->
<g id="node1" class="node">
<title>ℓ</title>
<ellipse fill="none" stroke="black" cx="43.13" cy="-276.43" rx="43.27" ry="37.45"/>
<text text-anchor="middle" x="43.13" y="-287.73" font-family="Times,serif" font-size="14.00">ℓ</text>
<text text-anchor="middle" x="43.13" y="-272.73" font-family="Times,serif" font-size="14.00">~</text>
<text text-anchor="middle" x="43.13" y="-257.73" font-family="Times,serif" font-size="14.00">Gamma</text>
</g>
<!-- f -->
<g id="node3" class="node">
<title>f</title>
<polygon fill="none" stroke="black" points="200.63,-202.95 107.63,-202.95 107.63,-149.95 200.63,-149.95 200.63,-202.95"/>
<text text-anchor="middle" x="154.13" y="-187.75" font-family="Times,serif" font-size="14.00">f</text>
<text text-anchor="middle" x="154.13" y="-172.75" font-family="Times,serif" font-size="14.00">~</text>
<text text-anchor="middle" x="154.13" y="-157.75" font-family="Times,serif" font-size="14.00">Deterministic</text>
</g>
<!-- ℓ&#45;&gt;f -->
<g id="edge1" class="edge">
<title>ℓ&#45;&gt;f</title>
<path fill="none" stroke="black" d="M72.88,-249.17C86.53,-237.12 102.86,-222.71 117.28,-209.98"/>
<polygon fill="black" stroke="black" points="119.89,-212.35 125.07,-203.1 115.26,-207.1 119.89,-212.35"/>
</g>
<!-- y -->
<g id="node2" class="node">
<title>y</title>
<ellipse fill="lightgrey" stroke="black" cx="154.13" cy="-76.48" rx="48.58" ry="37.45"/>
<text text-anchor="middle" x="154.13" y="-87.78" font-family="Times,serif" font-size="14.00">y</text>
<text text-anchor="middle" x="154.13" y="-72.78" font-family="Times,serif" font-size="14.00">~</text>
<text text-anchor="middle" x="154.13" y="-57.78" font-family="Times,serif" font-size="14.00">Bernoulli</text>
</g>
<!-- f&#45;&gt;y -->
<g id="edge3" class="edge">
<title>f&#45;&gt;y</title>
<path fill="none" stroke="black" d="M154.13,-149.71C154.13,-141.89 154.13,-133.03 154.13,-124.27"/>
<polygon fill="black" stroke="black" points="157.63,-124.1 154.13,-114.1 150.63,-124.1 157.63,-124.1"/>
</g>
<!-- f_rotated_ -->
<g id="node4" class="node">
<title>f_rotated_</title>
<ellipse fill="none" stroke="black" cx="156.13" cy="-276.43" rx="52.15" ry="37.45"/>
<text text-anchor="middle" x="156.13" y="-287.73" font-family="Times,serif" font-size="14.00">f_rotated_</text>
<text text-anchor="middle" x="156.13" y="-272.73" font-family="Times,serif" font-size="14.00">~</text>
<text text-anchor="middle" x="156.13" y="-257.73" font-family="Times,serif" font-size="14.00">Normal</text>
</g>
<!-- f_rotated_&#45;&gt;f -->
<g id="edge2" class="edge">
<title>f_rotated_&#45;&gt;f</title>
<path fill="none" stroke="black" d="M155.39,-238.95C155.22,-230.53 155.03,-221.59 154.86,-213.2"/>
<polygon fill="black" stroke="black" points="158.36,-212.89 154.65,-202.96 151.36,-213.03 158.36,-212.89"/>
</g>
</g>
</svg>
