<?xml version="1.0" encoding="UTF-8" standalone="no"?>
<!DOCTYPE svg PUBLIC "-//W3C//DTD SVG 1.1//EN"
 "http://www.w3.org/Graphics/SVG/1.1/DTD/svg11.dtd">
<!-- Generated by graphviz version 2.48.0 (0)
 -->
<!-- Pages: 1 -->
<svg width="232pt" height="233pt"
 viewBox="0.00 0.00 231.53 232.91" xmlns="http://www.w3.org/2000/svg" xmlns:xlink="http://www.w3.org/1999/xlink">
<g id="graph0" class="graph" transform="scale(1 1) rotate(0) translate(4 228.91)">
<polygon fill="white" stroke="transparent" points="-4,4 -4,-228.91 227.53,-228.91 227.53,4 -4,4"/>
<g id="clust1" class="cluster">
<title>cluster15</title>
<path fill="none" stroke="black" d="M51.13,-8C51.13,-8 155.13,-8 155.13,-8 161.13,-8 167.13,-14 167.13,-20 167.13,-20 167.13,-109.95 167.13,-109.95 167.13,-115.95 161.13,-121.95 155.13,-121.95 155.13,-121.95 51.13,-121.95 51.13,-121.95 45.13,-121.95 39.13,-115.95 39.13,-109.95 39.13,-109.95 39.13,-20 39.13,-20 39.13,-14 45.13,-8 51.13,-8"/>
<text text-anchor="middle" x="152.13" y="-15.8" font-family="Times,serif" font-size="14.00">15</text>
</g>
<!-- ℓ -->
<g id="node1" class="node">
<title>ℓ</title>
<ellipse fill="none" stroke="black" cx="43.13" cy="-187.43" rx="43.27" ry="37.45"/>
<text text-anchor="middle" x="43.13" y="-198.73" font-family="Times,serif" font-size="14.00">ℓ</text>
<text text-anchor="middle" x="43.13" y="-183.73" font-family="Times,serif" font-size="14.00">~</text>
<text text-anchor="middle" x="43.13" y="-168.73" font-family="Times,serif" font-size="14.00">Gamma</text>
</g>
<!-- y_pred -->
<g id="node3" class="node">
<title>y_pred</title>
<ellipse fill="lightgrey" stroke="black" cx="103.13" cy="-76.48" rx="55.72" ry="37.45"/>
<text text-anchor="middle" x="103.13" y="-87.78" font-family="Times,serif" font-size="14.00">y_pred</text>
<text text-anchor="middle" x="103.13" y="-72.78" font-family="Times,serif" font-size="14.00">~</text>
<text text-anchor="middle" x="103.13" y="-57.78" font-family="Times,serif" font-size="14.00">MvNormal</text>
</g>
<!-- ℓ&#45;&gt;y_pred -->
<g id="edge1" class="edge">
<title>ℓ&#45;&gt;y_pred</title>
<path fill="none" stroke="black" d="M61.46,-153.15C67.06,-142.98 73.3,-131.64 79.22,-120.9"/>
<polygon fill="black" stroke="black" points="82.33,-122.51 84.09,-112.06 76.2,-119.13 82.33,-122.51"/>
</g>
<!-- ϵ -->
<g id="node2" class="node">
<title>ϵ</title>
<ellipse fill="none" stroke="black" cx="164.13" cy="-187.43" rx="59.29" ry="37.45"/>
<text text-anchor="middle" x="164.13" y="-198.73" font-family="Times,serif" font-size="14.00">ϵ</text>
<text text-anchor="middle" x="164.13" y="-183.73" font-family="Times,serif" font-size="14.00">~</text>
<text text-anchor="middle" x="164.13" y="-168.73" font-family="Times,serif" font-size="14.00">HalfNormal</text>
</g>
<!-- ϵ&#45;&gt;y_pred -->
<g id="edge2" class="edge">
<title>ϵ&#45;&gt;y_pred</title>
<path fill="none" stroke="black" d="M144.83,-151.96C139.27,-142.02 133.13,-131.06 127.32,-120.67"/>
<polygon fill="black" stroke="black" points="130.25,-118.74 122.31,-111.73 124.14,-122.16 130.25,-118.74"/>
</g>
</g>
</svg>
