<?xml version="1.0" encoding="UTF-8" standalone="no"?>
<!DOCTYPE svg PUBLIC "-//W3C//DTD SVG 1.1//EN"
 "http://www.w3.org/Graphics/SVG/1.1/DTD/svg11.dtd">
<!-- Generated by graphviz version 2.48.0 (0)
 -->
<!-- Pages: 1 -->
<svg width="430pt" height="233pt"
 viewBox="0.00 0.00 430.12 232.91" xmlns="http://www.w3.org/2000/svg" xmlns:xlink="http://www.w3.org/1999/xlink">
<g id="graph0" class="graph" transform="scale(1 1) rotate(0) translate(4 228.91)">
<polygon fill="white" stroke="transparent" points="-4,4 -4,-228.91 426.12,-228.91 426.12,4 -4,4"/>
<g id="clust1" class="cluster">
<title>cluster11</title>
<path fill="none" stroke="black" d="M190.4,-8C190.4,-8 266.4,-8 266.4,-8 272.4,-8 278.4,-14 278.4,-20 278.4,-20 278.4,-109.95 278.4,-109.95 278.4,-115.95 272.4,-121.95 266.4,-121.95 266.4,-121.95 190.4,-121.95 190.4,-121.95 184.4,-121.95 178.4,-115.95 178.4,-109.95 178.4,-109.95 178.4,-20 178.4,-20 178.4,-14 184.4,-8 190.4,-8"/>
<text text-anchor="middle" x="263.4" y="-15.8" font-family="Times,serif" font-size="14.00">11</text>
</g>
<!-- ϵ -->
<g id="node1" class="node">
<title>ϵ</title>
<ellipse fill="none" stroke="black" cx="59.4" cy="-187.43" rx="59.29" ry="37.45"/>
<text text-anchor="middle" x="59.4" y="-198.73" font-family="Times,serif" font-size="14.00">ϵ</text>
<text text-anchor="middle" x="59.4" y="-183.73" font-family="Times,serif" font-size="14.00">~</text>
<text text-anchor="middle" x="59.4" y="-168.73" font-family="Times,serif" font-size="14.00">HalfCauchy</text>
</g>
<!-- y_pred -->
<g id="node5" class="node">
<title>y_pred</title>
<ellipse fill="lightgrey" stroke="black" cx="228.4" cy="-76.48" rx="41.94" ry="37.45"/>
<text text-anchor="middle" x="228.4" y="-87.78" font-family="Times,serif" font-size="14.00">y_pred</text>
<text text-anchor="middle" x="228.4" y="-72.78" font-family="Times,serif" font-size="14.00">~</text>
<text text-anchor="middle" x="228.4" y="-57.78" font-family="Times,serif" font-size="14.00">Normal</text>
</g>
<!-- ϵ&#45;&gt;y_pred -->
<g id="edge1" class="edge">
<title>ϵ&#45;&gt;y_pred</title>
<path fill="none" stroke="black" d="M100.31,-160.06C126.37,-143.25 160.06,-121.53 186.35,-104.59"/>
<polygon fill="black" stroke="black" points="188.45,-107.4 194.95,-99.04 184.65,-101.51 188.45,-107.4"/>
</g>
<!-- β_2 -->
<g id="node2" class="node">
<title>β_2</title>
<ellipse fill="none" stroke="black" cx="178.4" cy="-187.43" rx="41.94" ry="37.45"/>
<text text-anchor="middle" x="178.4" y="-198.73" font-family="Times,serif" font-size="14.00">β_2</text>
<text text-anchor="middle" x="178.4" y="-183.73" font-family="Times,serif" font-size="14.00">~</text>
<text text-anchor="middle" x="178.4" y="-168.73" font-family="Times,serif" font-size="14.00">Normal</text>
</g>
<!-- β_2&#45;&gt;y_pred -->
<g id="edge3" class="edge">
<title>β_2&#45;&gt;y_pred</title>
<path fill="none" stroke="black" d="M193.94,-152.55C198.6,-142.41 203.77,-131.14 208.66,-120.49"/>
<polygon fill="black" stroke="black" points="211.87,-121.88 212.86,-111.33 205.51,-118.96 211.87,-121.88"/>
</g>
<!-- β_1 -->
<g id="node3" class="node">
<title>β_1</title>
<ellipse fill="none" stroke="black" cx="279.4" cy="-187.43" rx="41.94" ry="37.45"/>
<text text-anchor="middle" x="279.4" y="-198.73" font-family="Times,serif" font-size="14.00">β_1</text>
<text text-anchor="middle" x="279.4" y="-183.73" font-family="Times,serif" font-size="14.00">~</text>
<text text-anchor="middle" x="279.4" y="-168.73" font-family="Times,serif" font-size="14.00">Normal</text>
</g>
<!-- β_1&#45;&gt;y_pred -->
<g id="edge2" class="edge">
<title>β_1&#45;&gt;y_pred</title>
<path fill="none" stroke="black" d="M263.54,-152.55C258.79,-142.41 253.52,-131.14 248.53,-120.49"/>
<polygon fill="black" stroke="black" points="251.65,-118.91 244.24,-111.33 245.31,-121.87 251.65,-118.91"/>
</g>
<!-- α -->
<g id="node4" class="node">
<title>α</title>
<ellipse fill="none" stroke="black" cx="380.4" cy="-187.43" rx="41.94" ry="37.45"/>
<text text-anchor="middle" x="380.4" y="-198.73" font-family="Times,serif" font-size="14.00">α</text>
<text text-anchor="middle" x="380.4" y="-183.73" font-family="Times,serif" font-size="14.00">~</text>
<text text-anchor="middle" x="380.4" y="-168.73" font-family="Times,serif" font-size="14.00">Normal</text>
</g>
<!-- α&#45;&gt;y_pred -->
<g id="edge4" class="edge">
<title>α&#45;&gt;y_pred</title>
<path fill="none" stroke="black" d="M348.43,-163.02C342.45,-158.66 336.24,-154.16 330.4,-149.95 310.37,-135.53 288.03,-119.64 269.38,-106.42"/>
<polygon fill="black" stroke="black" points="271.27,-103.47 261.09,-100.55 267.22,-109.18 271.27,-103.47"/>
</g>
</g>
</svg>
