<?xml version="1.0" encoding="UTF-8" standalone="no"?>
<!DOCTYPE svg PUBLIC "-//W3C//DTD SVG 1.1//EN"
 "http://www.w3.org/Graphics/SVG/1.1/DTD/svg11.dtd">
<!-- Generated by graphviz version 2.48.0 (0)
 -->
<!-- Pages: 1 -->
<svg width="440pt" height="344pt"
 viewBox="0.00 0.00 440.44 343.86" xmlns="http://www.w3.org/2000/svg" xmlns:xlink="http://www.w3.org/1999/xlink">
<g id="graph0" class="graph" transform="scale(1 1) rotate(0) translate(4 339.86)">
<polygon fill="white" stroke="transparent" points="-4,4 -4,-339.86 436.44,-339.86 436.44,4 -4,4"/>
<g id="clust1" class="cluster">
<title>cluster11</title>
<path fill="none" stroke="black" d="M165.72,-8C165.72,-8 253.72,-8 253.72,-8 259.72,-8 265.72,-14 265.72,-20 265.72,-20 265.72,-109.95 265.72,-109.95 265.72,-115.95 259.72,-121.95 253.72,-121.95 253.72,-121.95 165.72,-121.95 165.72,-121.95 159.72,-121.95 153.72,-115.95 153.72,-109.95 153.72,-109.95 153.72,-20 153.72,-20 153.72,-14 159.72,-8 165.72,-8"/>
<text text-anchor="middle" x="250.72" y="-15.8" font-family="Times,serif" font-size="14.00">11</text>
</g>
<!-- β -->
<g id="node1" class="node">
<title>β</title>
<ellipse fill="none" stroke="black" cx="41.72" cy="-187.43" rx="41.94" ry="37.45"/>
<text text-anchor="middle" x="41.72" y="-198.73" font-family="Times,serif" font-size="14.00">β</text>
<text text-anchor="middle" x="41.72" y="-183.73" font-family="Times,serif" font-size="14.00">~</text>
<text text-anchor="middle" x="41.72" y="-168.73" font-family="Times,serif" font-size="14.00">Normal</text>
</g>
<!-- y_pred -->
<g id="node6" class="node">
<title>y_pred</title>
<ellipse fill="lightgrey" stroke="black" cx="209.72" cy="-76.48" rx="48.17" ry="37.45"/>
<text text-anchor="middle" x="209.72" y="-87.78" font-family="Times,serif" font-size="14.00">y_pred</text>
<text text-anchor="middle" x="209.72" y="-72.78" font-family="Times,serif" font-size="14.00">~</text>
<text text-anchor="middle" x="209.72" y="-57.78" font-family="Times,serif" font-size="14.00">StudentT</text>
</g>
<!-- β&#45;&gt;y_pred -->
<g id="edge3" class="edge">
<title>β&#45;&gt;y_pred</title>
<path fill="none" stroke="black" d="M73.46,-162.7C79.46,-158.37 85.74,-153.96 91.72,-149.95 114.8,-134.48 141.09,-118.21 162.99,-105.01"/>
<polygon fill="black" stroke="black" points="165,-107.89 171.77,-99.74 161.4,-101.88 165,-107.89"/>
</g>
<!-- ν -->
<g id="node2" class="node">
<title>ν</title>
<polygon fill="none" stroke="black" points="194.22,-213.93 101.22,-213.93 101.22,-160.93 194.22,-160.93 194.22,-213.93"/>
<text text-anchor="middle" x="147.72" y="-198.73" font-family="Times,serif" font-size="14.00">ν</text>
<text text-anchor="middle" x="147.72" y="-183.73" font-family="Times,serif" font-size="14.00">~</text>
<text text-anchor="middle" x="147.72" y="-168.73" font-family="Times,serif" font-size="14.00">Deterministic</text>
</g>
<!-- ν&#45;&gt;y_pred -->
<g id="edge2" class="edge">
<title>ν&#45;&gt;y_pred</title>
<path fill="none" stroke="black" d="M162.26,-160.89C169.18,-148.71 177.66,-133.82 185.52,-120"/>
<polygon fill="black" stroke="black" points="188.67,-121.54 190.58,-111.12 182.59,-118.08 188.67,-121.54"/>
</g>
<!-- ϵ -->
<g id="node3" class="node">
<title>ϵ</title>
<ellipse fill="none" stroke="black" cx="271.72" cy="-187.43" rx="59.29" ry="37.45"/>
<text text-anchor="middle" x="271.72" y="-198.73" font-family="Times,serif" font-size="14.00">ϵ</text>
<text text-anchor="middle" x="271.72" y="-183.73" font-family="Times,serif" font-size="14.00">~</text>
<text text-anchor="middle" x="271.72" y="-168.73" font-family="Times,serif" font-size="14.00">HalfNormal</text>
</g>
<!-- ϵ&#45;&gt;y_pred -->
<g id="edge4" class="edge">
<title>ϵ&#45;&gt;y_pred</title>
<path fill="none" stroke="black" d="M252.1,-151.96C246.28,-141.73 239.84,-130.41 233.77,-119.74"/>
<polygon fill="black" stroke="black" points="236.77,-117.94 228.78,-110.98 230.69,-121.4 236.77,-117.94"/>
</g>
<!-- α -->
<g id="node4" class="node">
<title>α</title>
<ellipse fill="none" stroke="black" cx="390.72" cy="-187.43" rx="41.94" ry="37.45"/>
<text text-anchor="middle" x="390.72" y="-198.73" font-family="Times,serif" font-size="14.00">α</text>
<text text-anchor="middle" x="390.72" y="-183.73" font-family="Times,serif" font-size="14.00">~</text>
<text text-anchor="middle" x="390.72" y="-168.73" font-family="Times,serif" font-size="14.00">Normal</text>
</g>
<!-- α&#45;&gt;y_pred -->
<g id="edge5" class="edge">
<title>α&#45;&gt;y_pred</title>
<path fill="none" stroke="black" d="M358.99,-162.91C352.69,-158.48 346.06,-153.97 339.72,-149.95 313.38,-133.26 282.98,-116.2 258.21,-102.83"/>
<polygon fill="black" stroke="black" points="259.82,-99.72 249.35,-98.08 256.51,-105.89 259.82,-99.72"/>
</g>
<!-- ν_ -->
<g id="node5" class="node">
<title>ν_</title>
<ellipse fill="none" stroke="black" cx="147.72" cy="-298.38" rx="59.29" ry="37.45"/>
<text text-anchor="middle" x="147.72" y="-309.68" font-family="Times,serif" font-size="14.00">ν_</text>
<text text-anchor="middle" x="147.72" y="-294.68" font-family="Times,serif" font-size="14.00">~</text>
<text text-anchor="middle" x="147.72" y="-279.68" font-family="Times,serif" font-size="14.00">Exponential</text>
</g>
<!-- ν_&#45;&gt;ν -->
<g id="edge1" class="edge">
<title>ν_&#45;&gt;ν</title>
<path fill="none" stroke="black" d="M147.72,-260.8C147.72,-249.06 147.72,-236.08 147.72,-224.38"/>
<polygon fill="black" stroke="black" points="151.22,-224.08 147.72,-214.08 144.22,-224.08 151.22,-224.08"/>
</g>
</g>
</svg>
