<?xml version="1.0" encoding="UTF-8" standalone="no"?>
<!DOCTYPE svg PUBLIC "-//W3C//DTD SVG 1.1//EN"
 "http://www.w3.org/Graphics/SVG/1.1/DTD/svg11.dtd">
<!-- Generated by graphviz version 2.48.0 (0)
 -->
<!-- Pages: 1 -->
<svg width="557pt" height="455pt"
 viewBox="0.00 0.00 557.12 454.81" xmlns="http://www.w3.org/2000/svg" xmlns:xlink="http://www.w3.org/1999/xlink">
<g id="graph0" class="graph" transform="scale(1 1) rotate(0) translate(4 450.81)">
<polygon fill="white" stroke="transparent" points="-4,4 -4,-450.81 553.12,-450.81 553.12,4 -4,4"/>
<g id="clust1" class="cluster">
<title>cluster141</title>
<path fill="none" stroke="black" d="M152.4,-8C152.4,-8 240.4,-8 240.4,-8 246.4,-8 252.4,-14 252.4,-20 252.4,-20 252.4,-109.95 252.4,-109.95 252.4,-115.95 246.4,-121.95 240.4,-121.95 240.4,-121.95 152.4,-121.95 152.4,-121.95 146.4,-121.95 140.4,-115.95 140.4,-109.95 140.4,-109.95 140.4,-20 140.4,-20 140.4,-14 146.4,-8 152.4,-8"/>
<text text-anchor="middle" x="233.9" y="-15.8" font-family="Times,serif" font-size="14.00">141</text>
</g>
<!-- β -->
<g id="node1" class="node">
<title>β</title>
<ellipse fill="none" stroke="black" cx="388.4" cy="-298.38" rx="41.94" ry="37.45"/>
<text text-anchor="middle" x="388.4" y="-309.68" font-family="Times,serif" font-size="14.00">β</text>
<text text-anchor="middle" x="388.4" y="-294.68" font-family="Times,serif" font-size="14.00">~</text>
<text text-anchor="middle" x="388.4" y="-279.68" font-family="Times,serif" font-size="14.00">Normal</text>
</g>
<!-- α -->
<g id="node7" class="node">
<title>α</title>
<polygon fill="none" stroke="black" points="366.9,-213.93 273.9,-213.93 273.9,-160.93 366.9,-160.93 366.9,-213.93"/>
<text text-anchor="middle" x="320.4" y="-198.73" font-family="Times,serif" font-size="14.00">α</text>
<text text-anchor="middle" x="320.4" y="-183.73" font-family="Times,serif" font-size="14.00">~</text>
<text text-anchor="middle" x="320.4" y="-168.73" font-family="Times,serif" font-size="14.00">Deterministic</text>
</g>
<!-- β&#45;&gt;α -->
<g id="edge6" class="edge">
<title>β&#45;&gt;α</title>
<path fill="none" stroke="black" d="M368.36,-265.28C360.01,-251.9 350.29,-236.33 341.79,-222.71"/>
<polygon fill="black" stroke="black" points="344.68,-220.73 336.42,-214.1 338.74,-224.43 344.68,-220.73"/>
</g>
<!-- ν -->
<g id="node2" class="node">
<title>ν</title>
<ellipse fill="none" stroke="black" cx="59.4" cy="-187.43" rx="59.29" ry="37.45"/>
<text text-anchor="middle" x="59.4" y="-198.73" font-family="Times,serif" font-size="14.00">ν</text>
<text text-anchor="middle" x="59.4" y="-183.73" font-family="Times,serif" font-size="14.00">~</text>
<text text-anchor="middle" x="59.4" y="-168.73" font-family="Times,serif" font-size="14.00">Exponential</text>
</g>
<!-- y_pred -->
<g id="node10" class="node">
<title>y_pred</title>
<ellipse fill="lightgrey" stroke="black" cx="196.4" cy="-76.48" rx="48.17" ry="37.45"/>
<text text-anchor="middle" x="196.4" y="-87.78" font-family="Times,serif" font-size="14.00">y_pred</text>
<text text-anchor="middle" x="196.4" y="-72.78" font-family="Times,serif" font-size="14.00">~</text>
<text text-anchor="middle" x="196.4" y="-57.78" font-family="Times,serif" font-size="14.00">StudentT</text>
</g>
<!-- ν&#45;&gt;y_pred -->
<g id="edge7" class="edge">
<title>ν&#45;&gt;y_pred</title>
<path fill="none" stroke="black" d="M95.75,-157.52C114.06,-142.96 136.34,-125.24 155.27,-110.18"/>
<polygon fill="black" stroke="black" points="157.51,-112.87 163.16,-103.91 153.16,-107.39 157.51,-112.87"/>
</g>
<!-- β_σ -->
<g id="node3" class="node">
<title>β_σ</title>
<ellipse fill="none" stroke="black" cx="388.4" cy="-409.34" rx="59.29" ry="37.45"/>
<text text-anchor="middle" x="388.4" y="-420.64" font-family="Times,serif" font-size="14.00">β_σ</text>
<text text-anchor="middle" x="388.4" y="-405.64" font-family="Times,serif" font-size="14.00">~</text>
<text text-anchor="middle" x="388.4" y="-390.64" font-family="Times,serif" font-size="14.00">HalfNormal</text>
</g>
<!-- β_σ&#45;&gt;β -->
<g id="edge4" class="edge">
<title>β_σ&#45;&gt;β</title>
<path fill="none" stroke="black" d="M388.4,-371.75C388.4,-363.58 388.4,-354.8 388.4,-346.27"/>
<polygon fill="black" stroke="black" points="391.9,-346.06 388.4,-336.06 384.9,-346.06 391.9,-346.06"/>
</g>
<!-- ϵ -->
<g id="node4" class="node">
<title>ϵ</title>
<ellipse fill="none" stroke="black" cx="196.4" cy="-187.43" rx="59.29" ry="37.45"/>
<text text-anchor="middle" x="196.4" y="-198.73" font-family="Times,serif" font-size="14.00">ϵ</text>
<text text-anchor="middle" x="196.4" y="-183.73" font-family="Times,serif" font-size="14.00">~</text>
<text text-anchor="middle" x="196.4" y="-168.73" font-family="Times,serif" font-size="14.00">HalfCauchy</text>
</g>
<!-- ϵ&#45;&gt;y_pred -->
<g id="edge8" class="edge">
<title>ϵ&#45;&gt;y_pred</title>
<path fill="none" stroke="black" d="M196.4,-149.85C196.4,-141.67 196.4,-132.89 196.4,-124.37"/>
<polygon fill="black" stroke="black" points="199.9,-124.15 196.4,-114.15 192.9,-124.15 199.9,-124.15"/>
</g>
<!-- α_samp_μ -->
<g id="node5" class="node">
<title>α_samp_μ</title>
<ellipse fill="none" stroke="black" cx="120.4" cy="-409.34" rx="53.98" ry="37.45"/>
<text text-anchor="middle" x="120.4" y="-420.64" font-family="Times,serif" font-size="14.00">α_samp_μ</text>
<text text-anchor="middle" x="120.4" y="-405.64" font-family="Times,serif" font-size="14.00">~</text>
<text text-anchor="middle" x="120.4" y="-390.64" font-family="Times,serif" font-size="14.00">Normal</text>
</g>
<!-- α_samp -->
<g id="node9" class="node">
<title>α_samp</title>
<ellipse fill="none" stroke="black" cx="251.4" cy="-298.38" rx="43.68" ry="37.45"/>
<text text-anchor="middle" x="251.4" y="-309.68" font-family="Times,serif" font-size="14.00">α_samp</text>
<text text-anchor="middle" x="251.4" y="-294.68" font-family="Times,serif" font-size="14.00">~</text>
<text text-anchor="middle" x="251.4" y="-279.68" font-family="Times,serif" font-size="14.00">Normal</text>
</g>
<!-- α_samp_μ&#45;&gt;α_samp -->
<g id="edge2" class="edge">
<title>α_samp_μ&#45;&gt;α_samp</title>
<path fill="none" stroke="black" d="M154.47,-379.99C172.09,-365.34 193.69,-347.38 212.02,-332.14"/>
<polygon fill="black" stroke="black" points="214.73,-334.43 220.18,-325.34 210.26,-329.05 214.73,-334.43"/>
</g>
<!-- α_samp_σ -->
<g id="node6" class="node">
<title>α_samp_σ</title>
<ellipse fill="none" stroke="black" cx="251.4" cy="-409.34" rx="59.29" ry="37.45"/>
<text text-anchor="middle" x="251.4" y="-420.64" font-family="Times,serif" font-size="14.00">α_samp_σ</text>
<text text-anchor="middle" x="251.4" y="-405.64" font-family="Times,serif" font-size="14.00">~</text>
<text text-anchor="middle" x="251.4" y="-390.64" font-family="Times,serif" font-size="14.00">HalfNormal</text>
</g>
<!-- α_samp_σ&#45;&gt;α_samp -->
<g id="edge1" class="edge">
<title>α_samp_σ&#45;&gt;α_samp</title>
<path fill="none" stroke="black" d="M251.4,-371.75C251.4,-363.58 251.4,-354.8 251.4,-346.27"/>
<polygon fill="black" stroke="black" points="254.9,-346.06 251.4,-336.06 247.9,-346.06 254.9,-346.06"/>
</g>
<!-- α&#45;&gt;y_pred -->
<g id="edge9" class="edge">
<title>α&#45;&gt;y_pred</title>
<path fill="none" stroke="black" d="M291.32,-160.89C274.66,-146.25 253.53,-127.68 235.44,-111.78"/>
<polygon fill="black" stroke="black" points="237.72,-109.12 227.89,-105.15 233.1,-114.38 237.72,-109.12"/>
</g>
<!-- β_μ -->
<g id="node8" class="node">
<title>β_μ</title>
<ellipse fill="none" stroke="black" cx="507.4" cy="-409.34" rx="41.94" ry="37.45"/>
<text text-anchor="middle" x="507.4" y="-420.64" font-family="Times,serif" font-size="14.00">β_μ</text>
<text text-anchor="middle" x="507.4" y="-405.64" font-family="Times,serif" font-size="14.00">~</text>
<text text-anchor="middle" x="507.4" y="-390.64" font-family="Times,serif" font-size="14.00">Normal</text>
</g>
<!-- β_μ&#45;&gt;β -->
<g id="edge3" class="edge">
<title>β_μ&#45;&gt;β</title>
<path fill="none" stroke="black" d="M478.59,-381.96C462.48,-367.22 442.25,-348.69 425.03,-332.92"/>
<polygon fill="black" stroke="black" points="427.09,-330.06 417.35,-325.89 422.36,-335.23 427.09,-330.06"/>
</g>
<!-- α_samp&#45;&gt;α -->
<g id="edge5" class="edge">
<title>α_samp&#45;&gt;α</title>
<path fill="none" stroke="black" d="M271.91,-264.99C280.39,-251.61 290.21,-236.09 298.8,-222.54"/>
<polygon fill="black" stroke="black" points="301.84,-224.28 304.23,-213.96 295.92,-220.54 301.84,-224.28"/>
</g>
</g>
</svg>
