<?xml version="1.0" encoding="UTF-8" standalone="no"?>
<!DOCTYPE svg PUBLIC "-//W3C//DTD SVG 1.1//EN"
 "http://www.w3.org/Graphics/SVG/1.1/DTD/svg11.dtd">
<!-- Generated by graphviz version 2.48.0 (0)
 -->
<!-- Pages: 1 -->
<svg width="422pt" height="344pt"
 viewBox="0.00 0.00 422.12 343.86" xmlns="http://www.w3.org/2000/svg" xmlns:xlink="http://www.w3.org/1999/xlink">
<g id="graph0" class="graph" transform="scale(1 1) rotate(0) translate(4 339.86)">
<polygon fill="white" stroke="transparent" points="-4,4 -4,-339.86 418.12,-339.86 418.12,4 -4,4"/>
<g id="clust1" class="cluster">
<title>cluster141</title>
<path fill="none" stroke="black" d="M173.72,-8C173.72,-8 261.72,-8 261.72,-8 267.72,-8 273.72,-14 273.72,-20 273.72,-20 273.72,-109.95 273.72,-109.95 273.72,-115.95 267.72,-121.95 261.72,-121.95 261.72,-121.95 173.72,-121.95 173.72,-121.95 167.72,-121.95 161.72,-115.95 161.72,-109.95 161.72,-109.95 161.72,-20 161.72,-20 161.72,-14 167.72,-8 173.72,-8"/>
<text text-anchor="middle" x="255.22" y="-15.8" font-family="Times,serif" font-size="14.00">141</text>
</g>
<!-- β -->
<g id="node1" class="node">
<title>β</title>
<ellipse fill="none" stroke="black" cx="41.72" cy="-298.38" rx="41.94" ry="37.45"/>
<text text-anchor="middle" x="41.72" y="-309.68" font-family="Times,serif" font-size="14.00">β</text>
<text text-anchor="middle" x="41.72" y="-294.68" font-family="Times,serif" font-size="14.00">~</text>
<text text-anchor="middle" x="41.72" y="-279.68" font-family="Times,serif" font-size="14.00">Normal</text>
</g>
<!-- α -->
<g id="node4" class="node">
<title>α</title>
<polygon fill="none" stroke="black" points="140.22,-213.93 47.22,-213.93 47.22,-160.93 140.22,-160.93 140.22,-213.93"/>
<text text-anchor="middle" x="93.72" y="-198.73" font-family="Times,serif" font-size="14.00">α</text>
<text text-anchor="middle" x="93.72" y="-183.73" font-family="Times,serif" font-size="14.00">~</text>
<text text-anchor="middle" x="93.72" y="-168.73" font-family="Times,serif" font-size="14.00">Deterministic</text>
</g>
<!-- β&#45;&gt;α -->
<g id="edge1" class="edge">
<title>β&#45;&gt;α</title>
<path fill="none" stroke="black" d="M57.89,-263.51C64.03,-250.64 71.03,-235.97 77.2,-223.04"/>
<polygon fill="black" stroke="black" points="80.38,-224.51 81.53,-213.97 74.06,-221.49 80.38,-224.51"/>
</g>
<!-- ν -->
<g id="node2" class="node">
<title>ν</title>
<ellipse fill="none" stroke="black" cx="217.72" cy="-187.43" rx="59.29" ry="37.45"/>
<text text-anchor="middle" x="217.72" y="-198.73" font-family="Times,serif" font-size="14.00">ν</text>
<text text-anchor="middle" x="217.72" y="-183.73" font-family="Times,serif" font-size="14.00">~</text>
<text text-anchor="middle" x="217.72" y="-168.73" font-family="Times,serif" font-size="14.00">Exponential</text>
</g>
<!-- y_pred -->
<g id="node6" class="node">
<title>y_pred</title>
<ellipse fill="lightgrey" stroke="black" cx="217.72" cy="-76.48" rx="48.17" ry="37.45"/>
<text text-anchor="middle" x="217.72" y="-87.78" font-family="Times,serif" font-size="14.00">y_pred</text>
<text text-anchor="middle" x="217.72" y="-72.78" font-family="Times,serif" font-size="14.00">~</text>
<text text-anchor="middle" x="217.72" y="-57.78" font-family="Times,serif" font-size="14.00">StudentT</text>
</g>
<!-- ν&#45;&gt;y_pred -->
<g id="edge3" class="edge">
<title>ν&#45;&gt;y_pred</title>
<path fill="none" stroke="black" d="M217.72,-149.85C217.72,-141.67 217.72,-132.89 217.72,-124.37"/>
<polygon fill="black" stroke="black" points="221.22,-124.15 217.72,-114.15 214.22,-124.15 221.22,-124.15"/>
</g>
<!-- ϵ -->
<g id="node3" class="node">
<title>ϵ</title>
<ellipse fill="none" stroke="black" cx="354.72" cy="-187.43" rx="59.29" ry="37.45"/>
<text text-anchor="middle" x="354.72" y="-198.73" font-family="Times,serif" font-size="14.00">ϵ</text>
<text text-anchor="middle" x="354.72" y="-183.73" font-family="Times,serif" font-size="14.00">~</text>
<text text-anchor="middle" x="354.72" y="-168.73" font-family="Times,serif" font-size="14.00">HalfCauchy</text>
</g>
<!-- ϵ&#45;&gt;y_pred -->
<g id="edge4" class="edge">
<title>ϵ&#45;&gt;y_pred</title>
<path fill="none" stroke="black" d="M318.37,-157.52C300.05,-142.96 277.78,-125.24 258.84,-110.18"/>
<polygon fill="black" stroke="black" points="260.96,-107.39 250.95,-103.91 256.6,-112.87 260.96,-107.39"/>
</g>
<!-- α&#45;&gt;y_pred -->
<g id="edge5" class="edge">
<title>α&#45;&gt;y_pred</title>
<path fill="none" stroke="black" d="M122.79,-160.89C139.45,-146.25 160.58,-127.68 178.68,-111.78"/>
<polygon fill="black" stroke="black" points="181.02,-114.38 186.22,-105.15 176.4,-109.12 181.02,-114.38"/>
</g>
<!-- α_samp -->
<g id="node5" class="node">
<title>α_samp</title>
<ellipse fill="none" stroke="black" cx="145.72" cy="-298.38" rx="43.68" ry="37.45"/>
<text text-anchor="middle" x="145.72" y="-309.68" font-family="Times,serif" font-size="14.00">α_samp</text>
<text text-anchor="middle" x="145.72" y="-294.68" font-family="Times,serif" font-size="14.00">~</text>
<text text-anchor="middle" x="145.72" y="-279.68" font-family="Times,serif" font-size="14.00">Normal</text>
</g>
<!-- α_samp&#45;&gt;α -->
<g id="edge2" class="edge">
<title>α_samp&#45;&gt;α</title>
<path fill="none" stroke="black" d="M129.55,-263.51C123.41,-250.64 116.41,-235.97 110.24,-223.04"/>
<polygon fill="black" stroke="black" points="113.38,-221.49 105.91,-213.97 107.06,-224.51 113.38,-221.49"/>
</g>
</g>
</svg>
