<?xml version="1.0" encoding="UTF-8" standalone="no"?>
<!DOCTYPE svg PUBLIC "-//W3C//DTD SVG 1.1//EN"
 "http://www.w3.org/Graphics/SVG/1.1/DTD/svg11.dtd">
<!-- Generated by graphviz version 2.48.0 (0)
 -->
<!-- Pages: 1 -->
<svg width="492pt" height="260pt"
 viewBox="0.00 0.00 491.50 259.91" xmlns="http://www.w3.org/2000/svg" xmlns:xlink="http://www.w3.org/1999/xlink">
<g id="graph0" class="graph" transform="scale(1 1) rotate(0) translate(4 255.91)">
<polygon fill="white" stroke="transparent" points="-4,4 -4,-255.91 487.5,-255.91 487.5,4 -4,4"/>
<g id="clust1" class="cluster">
<title>cluster2</title>
<path fill="none" stroke="black" d="M20,-129.95C20,-129.95 96,-129.95 96,-129.95 102,-129.95 108,-135.95 108,-141.95 108,-141.95 108,-231.91 108,-231.91 108,-237.91 102,-243.91 96,-243.91 96,-243.91 20,-243.91 20,-243.91 14,-243.91 8,-237.91 8,-231.91 8,-231.91 8,-141.95 8,-141.95 8,-135.95 14,-129.95 20,-129.95"/>
<text text-anchor="middle" x="96.5" y="-137.75" font-family="Times,serif" font-size="14.00">2</text>
</g>
<g id="clust2" class="cluster">
<title>cluster100 x 2</title>
<path fill="none" stroke="black" d="M193,-8C193,-8 297,-8 297,-8 303,-8 309,-14 309,-20 309,-20 309,-109.95 309,-109.95 309,-115.95 303,-121.95 297,-121.95 297,-121.95 193,-121.95 193,-121.95 187,-121.95 181,-115.95 181,-109.95 181,-109.95 181,-20 181,-20 181,-14 187,-8 193,-8"/>
<text text-anchor="middle" x="280" y="-15.8" font-family="Times,serif" font-size="14.00">100 x 2</text>
</g>
<!-- μ -->
<g id="node1" class="node">
<title>μ</title>
<ellipse fill="none" stroke="black" cx="58" cy="-198.43" rx="41.94" ry="37.45"/>
<text text-anchor="middle" x="58" y="-209.73" font-family="Times,serif" font-size="14.00">μ</text>
<text text-anchor="middle" x="58" y="-194.73" font-family="Times,serif" font-size="14.00">~</text>
<text text-anchor="middle" x="58" y="-179.73" font-family="Times,serif" font-size="14.00">Normal</text>
</g>
<!-- y_pred -->
<g id="node6" class="node">
<title>y_pred</title>
<ellipse fill="lightgrey" stroke="black" cx="245" cy="-76.48" rx="55.72" ry="37.45"/>
<text text-anchor="middle" x="245" y="-87.78" font-family="Times,serif" font-size="14.00">y_pred</text>
<text text-anchor="middle" x="245" y="-72.78" font-family="Times,serif" font-size="14.00">~</text>
<text text-anchor="middle" x="245" y="-57.78" font-family="Times,serif" font-size="14.00">MvNormal</text>
</g>
<!-- μ&#45;&gt;y_pred -->
<g id="edge5" class="edge">
<title>μ&#45;&gt;y_pred</title>
<path fill="none" stroke="black" d="M77.21,-164.73C85.69,-152.5 96.57,-139.32 109,-129.95 130.86,-113.48 158.52,-101.56 183.18,-93.28"/>
<polygon fill="black" stroke="black" points="184.37,-96.58 192.82,-90.18 182.23,-89.91 184.37,-96.58"/>
</g>
<!-- σ_2 -->
<g id="node2" class="node">
<title>σ_2</title>
<ellipse fill="none" stroke="black" cx="177" cy="-198.43" rx="59.29" ry="37.45"/>
<text text-anchor="middle" x="177" y="-209.73" font-family="Times,serif" font-size="14.00">σ_2</text>
<text text-anchor="middle" x="177" y="-194.73" font-family="Times,serif" font-size="14.00">~</text>
<text text-anchor="middle" x="177" y="-179.73" font-family="Times,serif" font-size="14.00">HalfNormal</text>
</g>
<!-- σ_2&#45;&gt;y_pred -->
<g id="edge2" class="edge">
<title>σ_2&#45;&gt;y_pred</title>
<path fill="none" stroke="black" d="M196.67,-162.73C204.13,-149.57 212.73,-134.41 220.58,-120.56"/>
<polygon fill="black" stroke="black" points="223.72,-122.11 225.61,-111.68 217.63,-118.65 223.72,-122.11"/>
</g>
<!-- r2 -->
<g id="node3" class="node">
<title>r2</title>
<polygon fill="none" stroke="black" points="483.5,-102.98 390.5,-102.98 390.5,-49.98 483.5,-49.98 483.5,-102.98"/>
<text text-anchor="middle" x="437" y="-87.78" font-family="Times,serif" font-size="14.00">r2</text>
<text text-anchor="middle" x="437" y="-72.78" font-family="Times,serif" font-size="14.00">~</text>
<text text-anchor="middle" x="437" y="-57.78" font-family="Times,serif" font-size="14.00">Deterministic</text>
</g>
<!-- σ_1 -->
<g id="node4" class="node">
<title>σ_1</title>
<ellipse fill="none" stroke="black" cx="314" cy="-198.43" rx="59.29" ry="37.45"/>
<text text-anchor="middle" x="314" y="-209.73" font-family="Times,serif" font-size="14.00">σ_1</text>
<text text-anchor="middle" x="314" y="-194.73" font-family="Times,serif" font-size="14.00">~</text>
<text text-anchor="middle" x="314" y="-179.73" font-family="Times,serif" font-size="14.00">HalfNormal</text>
</g>
<!-- σ_1&#45;&gt;y_pred -->
<g id="edge3" class="edge">
<title>σ_1&#45;&gt;y_pred</title>
<path fill="none" stroke="black" d="M294.23,-163.06C286.65,-149.88 277.9,-134.68 269.9,-120.77"/>
<polygon fill="black" stroke="black" points="272.8,-118.78 264.78,-111.86 266.73,-122.27 272.8,-118.78"/>
</g>
<!-- ρ -->
<g id="node5" class="node">
<title>ρ</title>
<ellipse fill="none" stroke="black" cx="437" cy="-198.43" rx="45.92" ry="37.45"/>
<text text-anchor="middle" x="437" y="-209.73" font-family="Times,serif" font-size="14.00">ρ</text>
<text text-anchor="middle" x="437" y="-194.73" font-family="Times,serif" font-size="14.00">~</text>
<text text-anchor="middle" x="437" y="-179.73" font-family="Times,serif" font-size="14.00">Uniform</text>
</g>
<!-- ρ&#45;&gt;r2 -->
<g id="edge1" class="edge">
<title>ρ&#45;&gt;r2</title>
<path fill="none" stroke="black" d="M437,-160.79C437,-145.82 437,-128.55 437,-113.63"/>
<polygon fill="black" stroke="black" points="440.5,-113.25 437,-103.25 433.5,-113.25 440.5,-113.25"/>
</g>
<!-- ρ&#45;&gt;y_pred -->
<g id="edge4" class="edge">
<title>ρ&#45;&gt;y_pred</title>
<path fill="none" stroke="black" d="M415.85,-164.75C406.64,-152.53 394.98,-139.34 382,-129.95 359.59,-113.74 331.55,-101.84 306.68,-93.51"/>
<polygon fill="black" stroke="black" points="307.55,-90.12 296.96,-90.38 305.4,-96.78 307.55,-90.12"/>
</g>
</g>
</svg>
