<?xml version="1.0" encoding="UTF-8" standalone="no"?>
<!DOCTYPE svg PUBLIC "-//W3C//DTD SVG 1.1//EN"
 "http://www.w3.org/Graphics/SVG/1.1/DTD/svg11.dtd">
<!-- Generated by graphviz version 2.48.0 (0)
 -->
<!-- Pages: 1 -->
<svg width="283pt" height="344pt"
 viewBox="0.00 0.00 283.12 343.86" xmlns="http://www.w3.org/2000/svg" xmlns:xlink="http://www.w3.org/1999/xlink">
<g id="graph0" class="graph" transform="scale(1 1) rotate(0) translate(4 339.86)">
<polygon fill="white" stroke="transparent" points="-4,4 -4,-339.86 279.12,-339.86 279.12,4 -4,4"/>
<g id="clust1" class="cluster">
<title>cluster100</title>
<path fill="none" stroke="black" d="M140.4,-8C140.4,-8 226.4,-8 226.4,-8 232.4,-8 238.4,-14 238.4,-20 238.4,-20 238.4,-209.93 238.4,-209.93 238.4,-215.93 232.4,-221.93 226.4,-221.93 226.4,-221.93 140.4,-221.93 140.4,-221.93 134.4,-221.93 128.4,-215.93 128.4,-209.93 128.4,-209.93 128.4,-20 128.4,-20 128.4,-14 134.4,-8 140.4,-8"/>
<text text-anchor="middle" x="219.9" y="-15.8" font-family="Times,serif" font-size="14.00">100</text>
</g>
<!-- ϵ -->
<g id="node1" class="node">
<title>ϵ</title>
<ellipse fill="none" stroke="black" cx="59.4" cy="-187.43" rx="59.29" ry="37.45"/>
<text text-anchor="middle" x="59.4" y="-198.73" font-family="Times,serif" font-size="14.00">ϵ</text>
<text text-anchor="middle" x="59.4" y="-183.73" font-family="Times,serif" font-size="14.00">~</text>
<text text-anchor="middle" x="59.4" y="-168.73" font-family="Times,serif" font-size="14.00">HalfCauchy</text>
</g>
<!-- y_pred -->
<g id="node4" class="node">
<title>y_pred</title>
<ellipse fill="lightgrey" stroke="black" cx="180.4" cy="-76.48" rx="41.94" ry="37.45"/>
<text text-anchor="middle" x="180.4" y="-87.78" font-family="Times,serif" font-size="14.00">y_pred</text>
<text text-anchor="middle" x="180.4" y="-72.78" font-family="Times,serif" font-size="14.00">~</text>
<text text-anchor="middle" x="180.4" y="-57.78" font-family="Times,serif" font-size="14.00">Normal</text>
</g>
<!-- ϵ&#45;&gt;y_pred -->
<g id="edge4" class="edge">
<title>ϵ&#45;&gt;y_pred</title>
<path fill="none" stroke="black" d="M92.78,-156.37C108.53,-142.19 127.37,-125.22 143.54,-110.66"/>
<polygon fill="black" stroke="black" points="146.15,-113.03 151.24,-103.73 141.46,-107.82 146.15,-113.03"/>
</g>
<!-- β -->
<g id="node2" class="node">
<title>β</title>
<ellipse fill="none" stroke="black" cx="132.4" cy="-298.38" rx="41.94" ry="37.45"/>
<text text-anchor="middle" x="132.4" y="-309.68" font-family="Times,serif" font-size="14.00">β</text>
<text text-anchor="middle" x="132.4" y="-294.68" font-family="Times,serif" font-size="14.00">~</text>
<text text-anchor="middle" x="132.4" y="-279.68" font-family="Times,serif" font-size="14.00">Normal</text>
</g>
<!-- μ -->
<g id="node5" class="node">
<title>μ</title>
<polygon fill="none" stroke="black" points="229.9,-213.93 136.9,-213.93 136.9,-160.93 229.9,-160.93 229.9,-213.93"/>
<text text-anchor="middle" x="183.4" y="-198.73" font-family="Times,serif" font-size="14.00">μ</text>
<text text-anchor="middle" x="183.4" y="-183.73" font-family="Times,serif" font-size="14.00">~</text>
<text text-anchor="middle" x="183.4" y="-168.73" font-family="Times,serif" font-size="14.00">Deterministic</text>
</g>
<!-- β&#45;&gt;μ -->
<g id="edge1" class="edge">
<title>β&#45;&gt;μ</title>
<path fill="none" stroke="black" d="M148.25,-263.51C154.28,-250.64 161.14,-235.97 167.2,-223.04"/>
<polygon fill="black" stroke="black" points="170.37,-224.52 171.44,-213.97 164.03,-221.55 170.37,-224.52"/>
</g>
<!-- α -->
<g id="node3" class="node">
<title>α</title>
<ellipse fill="none" stroke="black" cx="233.4" cy="-298.38" rx="41.94" ry="37.45"/>
<text text-anchor="middle" x="233.4" y="-309.68" font-family="Times,serif" font-size="14.00">α</text>
<text text-anchor="middle" x="233.4" y="-294.68" font-family="Times,serif" font-size="14.00">~</text>
<text text-anchor="middle" x="233.4" y="-279.68" font-family="Times,serif" font-size="14.00">Normal</text>
</g>
<!-- α&#45;&gt;μ -->
<g id="edge2" class="edge">
<title>α&#45;&gt;μ</title>
<path fill="none" stroke="black" d="M217.85,-263.51C212,-250.76 205.35,-236.26 199.45,-223.41"/>
<polygon fill="black" stroke="black" points="202.47,-221.6 195.12,-213.97 196.11,-224.52 202.47,-221.6"/>
</g>
<!-- μ&#45;&gt;y_pred -->
<g id="edge3" class="edge">
<title>μ&#45;&gt;y_pred</title>
<path fill="none" stroke="black" d="M182.69,-160.89C182.39,-149.98 182.03,-136.89 181.69,-124.35"/>
<polygon fill="black" stroke="black" points="185.18,-123.9 181.4,-114 178.18,-124.09 185.18,-123.9"/>
</g>
</g>
</svg>
