<?xml version="1.0" encoding="UTF-8" standalone="no"?>
<!DOCTYPE svg PUBLIC "-//W3C//DTD SVG 1.1//EN"
 "http://www.w3.org/Graphics/SVG/1.1/DTD/svg11.dtd">
<!-- Generated by graphviz version 2.48.0 (0)
 -->
<!-- Pages: 1 -->
<svg width="350pt" height="260pt"
 viewBox="0.00 0.00 350.40 259.91" xmlns="http://www.w3.org/2000/svg" xmlns:xlink="http://www.w3.org/1999/xlink">
<g id="graph0" class="graph" transform="scale(1 1) rotate(0) translate(4 255.91)">
<polygon fill="white" stroke="transparent" points="-4,4 -4,-255.91 346.4,-255.91 346.4,4 -4,4"/>
<g id="clust1" class="cluster">
<title>cluster2</title>
<path fill="none" stroke="black" d="M246.4,-129.95C246.4,-129.95 322.4,-129.95 322.4,-129.95 328.4,-129.95 334.4,-135.95 334.4,-141.95 334.4,-141.95 334.4,-231.91 334.4,-231.91 334.4,-237.91 328.4,-243.91 322.4,-243.91 322.4,-243.91 246.4,-243.91 246.4,-243.91 240.4,-243.91 234.4,-237.91 234.4,-231.91 234.4,-231.91 234.4,-141.95 234.4,-141.95 234.4,-135.95 240.4,-129.95 246.4,-129.95"/>
<text text-anchor="middle" x="322.9" y="-137.75" font-family="Times,serif" font-size="14.00">2</text>
</g>
<g id="clust2" class="cluster">
<title>cluster100</title>
<path fill="none" stroke="black" d="M142.4,-8C142.4,-8 218.4,-8 218.4,-8 224.4,-8 230.4,-14 230.4,-20 230.4,-20 230.4,-109.95 230.4,-109.95 230.4,-115.95 224.4,-121.95 218.4,-121.95 218.4,-121.95 142.4,-121.95 142.4,-121.95 136.4,-121.95 130.4,-115.95 130.4,-109.95 130.4,-109.95 130.4,-20 130.4,-20 130.4,-14 136.4,-8 142.4,-8"/>
<text text-anchor="middle" x="211.9" y="-15.8" font-family="Times,serif" font-size="14.00">100</text>
</g>
<!-- ϵ -->
<g id="node1" class="node">
<title>ϵ</title>
<ellipse fill="none" stroke="black" cx="59.4" cy="-198.43" rx="59.29" ry="37.45"/>
<text text-anchor="middle" x="59.4" y="-209.73" font-family="Times,serif" font-size="14.00">ϵ</text>
<text text-anchor="middle" x="59.4" y="-194.73" font-family="Times,serif" font-size="14.00">~</text>
<text text-anchor="middle" x="59.4" y="-179.73" font-family="Times,serif" font-size="14.00">HalfCauchy</text>
</g>
<!-- y_pred -->
<g id="node4" class="node">
<title>y_pred</title>
<ellipse fill="lightgrey" stroke="black" cx="180.4" cy="-76.48" rx="41.94" ry="37.45"/>
<text text-anchor="middle" x="180.4" y="-87.78" font-family="Times,serif" font-size="14.00">y_pred</text>
<text text-anchor="middle" x="180.4" y="-72.78" font-family="Times,serif" font-size="14.00">~</text>
<text text-anchor="middle" x="180.4" y="-57.78" font-family="Times,serif" font-size="14.00">Normal</text>
</g>
<!-- ϵ&#45;&gt;y_pred -->
<g id="edge3" class="edge">
<title>ϵ&#45;&gt;y_pred</title>
<path fill="none" stroke="black" d="M90.87,-166.18C102.37,-154.78 115.47,-141.78 127.4,-129.95 133.22,-124.18 139.4,-118.06 145.41,-112.11"/>
<polygon fill="black" stroke="black" points="148.24,-114.23 152.88,-104.71 143.31,-109.26 148.24,-114.23"/>
</g>
<!-- α_samp -->
<g id="node2" class="node">
<title>α_samp</title>
<ellipse fill="none" stroke="black" cx="180.4" cy="-198.43" rx="43.68" ry="37.45"/>
<text text-anchor="middle" x="180.4" y="-209.73" font-family="Times,serif" font-size="14.00">α_samp</text>
<text text-anchor="middle" x="180.4" y="-194.73" font-family="Times,serif" font-size="14.00">~</text>
<text text-anchor="middle" x="180.4" y="-179.73" font-family="Times,serif" font-size="14.00">Normal</text>
</g>
<!-- α_samp&#45;&gt;y_pred -->
<g id="edge2" class="edge">
<title>α_samp&#45;&gt;y_pred</title>
<path fill="none" stroke="black" d="M180.4,-160.79C180.4,-149.38 180.4,-136.65 180.4,-124.63"/>
<polygon fill="black" stroke="black" points="183.9,-124.31 180.4,-114.31 176.9,-124.31 183.9,-124.31"/>
</g>
<!-- β -->
<g id="node3" class="node">
<title>β</title>
<ellipse fill="none" stroke="black" cx="284.4" cy="-198.43" rx="41.94" ry="37.45"/>
<text text-anchor="middle" x="284.4" y="-209.73" font-family="Times,serif" font-size="14.00">β</text>
<text text-anchor="middle" x="284.4" y="-194.73" font-family="Times,serif" font-size="14.00">~</text>
<text text-anchor="middle" x="284.4" y="-179.73" font-family="Times,serif" font-size="14.00">Normal</text>
</g>
<!-- β&#45;&gt;y_pred -->
<g id="edge1" class="edge">
<title>β&#45;&gt;y_pred</title>
<path fill="none" stroke="black" d="M262.44,-166.47C253.76,-154.74 243.45,-141.45 233.4,-129.95 228.06,-123.85 222.17,-117.6 216.31,-111.64"/>
<polygon fill="black" stroke="black" points="218.49,-108.87 208.95,-104.26 213.53,-113.81 218.49,-108.87"/>
</g>
</g>
</svg>
