<?xml version="1.0" encoding="UTF-8" standalone="no"?>
<!DOCTYPE svg PUBLIC "-//W3C//DTD SVG 1.1//EN"
 "http://www.w3.org/Graphics/SVG/1.1/DTD/svg11.dtd">
<!-- Generated by graphviz version 2.48.0 (0)
 -->
<!-- Pages: 1 -->
<svg width="466pt" height="322pt"
 viewBox="0.00 0.00 466.12 321.91" xmlns="http://www.w3.org/2000/svg" xmlns:xlink="http://www.w3.org/1999/xlink">
<g id="graph0" class="graph" transform="scale(1 1) rotate(0) translate(4 317.91)">
<polygon fill="white" stroke="transparent" points="-4,4 -4,-317.91 462.12,-317.91 462.12,4 -4,4"/>
<g id="clust1" class="cluster">
<title>cluster800</title>
<path fill="none" stroke="black" d="M157.4,-8C157.4,-8 354.4,-8 354.4,-8 360.4,-8 366.4,-14 366.4,-20 366.4,-20 366.4,-198.95 366.4,-198.95 366.4,-204.95 360.4,-210.95 354.4,-210.95 354.4,-210.95 157.4,-210.95 157.4,-210.95 151.4,-210.95 145.4,-204.95 145.4,-198.95 145.4,-198.95 145.4,-20 145.4,-20 145.4,-14 151.4,-8 157.4,-8"/>
<text text-anchor="middle" x="347.9" y="-15.8" font-family="Times,serif" font-size="14.00">800</text>
</g>
<!-- γ -->
<g id="node1" class="node">
<title>γ</title>
<ellipse fill="none" stroke="black" cx="59.4" cy="-276.43" rx="59.29" ry="37.45"/>
<text text-anchor="middle" x="59.4" y="-287.73" font-family="Times,serif" font-size="14.00">γ</text>
<text text-anchor="middle" x="59.4" y="-272.73" font-family="Times,serif" font-size="14.00">~</text>
<text text-anchor="middle" x="59.4" y="-257.73" font-family="Times,serif" font-size="14.00">HalfNormal</text>
</g>
<!-- ϵ -->
<g id="node5" class="node">
<title>ϵ</title>
<polygon fill="none" stroke="black" points="246.9,-202.95 153.9,-202.95 153.9,-149.95 246.9,-149.95 246.9,-202.95"/>
<text text-anchor="middle" x="200.4" y="-187.75" font-family="Times,serif" font-size="14.00">ϵ</text>
<text text-anchor="middle" x="200.4" y="-172.75" font-family="Times,serif" font-size="14.00">~</text>
<text text-anchor="middle" x="200.4" y="-157.75" font-family="Times,serif" font-size="14.00">Deterministic</text>
</g>
<!-- γ&#45;&gt;ϵ -->
<g id="edge3" class="edge">
<title>γ&#45;&gt;ϵ</title>
<path fill="none" stroke="black" d="M98.67,-248.14C116.04,-236.07 136.57,-221.8 154.63,-209.26"/>
<polygon fill="black" stroke="black" points="157.06,-211.83 163.27,-203.25 153.06,-206.08 157.06,-211.83"/>
</g>
<!-- δ -->
<g id="node2" class="node">
<title>δ</title>
<ellipse fill="none" stroke="black" cx="196.4" cy="-276.43" rx="59.29" ry="37.45"/>
<text text-anchor="middle" x="196.4" y="-287.73" font-family="Times,serif" font-size="14.00">δ</text>
<text text-anchor="middle" x="196.4" y="-272.73" font-family="Times,serif" font-size="14.00">~</text>
<text text-anchor="middle" x="196.4" y="-257.73" font-family="Times,serif" font-size="14.00">HalfNormal</text>
</g>
<!-- δ&#45;&gt;ϵ -->
<g id="edge4" class="edge">
<title>δ&#45;&gt;ϵ</title>
<path fill="none" stroke="black" d="M197.89,-238.95C198.23,-230.53 198.6,-221.59 198.94,-213.2"/>
<polygon fill="black" stroke="black" points="202.44,-213.1 199.36,-202.96 195.45,-212.81 202.44,-213.1"/>
</g>
<!-- β -->
<g id="node3" class="node">
<title>β</title>
<ellipse fill="none" stroke="black" cx="315.4" cy="-276.43" rx="41.94" ry="37.45"/>
<text text-anchor="middle" x="315.4" y="-287.73" font-family="Times,serif" font-size="14.00">β</text>
<text text-anchor="middle" x="315.4" y="-272.73" font-family="Times,serif" font-size="14.00">~</text>
<text text-anchor="middle" x="315.4" y="-257.73" font-family="Times,serif" font-size="14.00">Normal</text>
</g>
<!-- μ -->
<g id="node7" class="node">
<title>μ</title>
<polygon fill="none" stroke="black" points="357.9,-202.95 264.9,-202.95 264.9,-149.95 357.9,-149.95 357.9,-202.95"/>
<text text-anchor="middle" x="311.4" y="-187.75" font-family="Times,serif" font-size="14.00">μ</text>
<text text-anchor="middle" x="311.4" y="-172.75" font-family="Times,serif" font-size="14.00">~</text>
<text text-anchor="middle" x="311.4" y="-157.75" font-family="Times,serif" font-size="14.00">Deterministic</text>
</g>
<!-- β&#45;&gt;μ -->
<g id="edge1" class="edge">
<title>β&#45;&gt;μ</title>
<path fill="none" stroke="black" d="M313.91,-238.95C313.56,-230.53 313.2,-221.59 312.86,-213.2"/>
<polygon fill="black" stroke="black" points="316.34,-212.81 312.44,-202.96 309.35,-213.1 316.34,-212.81"/>
</g>
<!-- α -->
<g id="node4" class="node">
<title>α</title>
<ellipse fill="none" stroke="black" cx="416.4" cy="-276.43" rx="41.94" ry="37.45"/>
<text text-anchor="middle" x="416.4" y="-287.73" font-family="Times,serif" font-size="14.00">α</text>
<text text-anchor="middle" x="416.4" y="-272.73" font-family="Times,serif" font-size="14.00">~</text>
<text text-anchor="middle" x="416.4" y="-257.73" font-family="Times,serif" font-size="14.00">Normal</text>
</g>
<!-- α&#45;&gt;μ -->
<g id="edge2" class="edge">
<title>α&#45;&gt;μ</title>
<path fill="none" stroke="black" d="M387.98,-248.92C375.07,-236.87 359.67,-222.5 346.08,-209.82"/>
<polygon fill="black" stroke="black" points="348.45,-207.24 338.75,-202.97 343.67,-212.36 348.45,-207.24"/>
</g>
<!-- y_pred -->
<g id="node6" class="node">
<title>y_pred</title>
<ellipse fill="lightgrey" stroke="black" cx="255.4" cy="-76.48" rx="41.94" ry="37.45"/>
<text text-anchor="middle" x="255.4" y="-87.78" font-family="Times,serif" font-size="14.00">y_pred</text>
<text text-anchor="middle" x="255.4" y="-72.78" font-family="Times,serif" font-size="14.00">~</text>
<text text-anchor="middle" x="255.4" y="-57.78" font-family="Times,serif" font-size="14.00">Normal</text>
</g>
<!-- ϵ&#45;&gt;y_pred -->
<g id="edge5" class="edge">
<title>ϵ&#45;&gt;y_pred</title>
<path fill="none" stroke="black" d="M214.85,-149.71C220.07,-140.41 226.1,-129.66 231.89,-119.34"/>
<polygon fill="black" stroke="black" points="235.05,-120.87 236.9,-110.43 228.95,-117.44 235.05,-120.87"/>
</g>
<!-- μ&#45;&gt;y_pred -->
<g id="edge6" class="edge">
<title>μ&#45;&gt;y_pred</title>
<path fill="none" stroke="black" d="M296.68,-149.71C291.32,-140.33 285.11,-129.46 279.16,-119.05"/>
<polygon fill="black" stroke="black" points="282.03,-117.02 274.03,-110.07 275.95,-120.49 282.03,-117.02"/>
</g>
</g>
</svg>
